<svg viewBox="0 0 1446 400" xmlns="http://www.w3.org/2000/svg"><g><g><g><g><g><line x1="40" y1="367.8006831209989" x2="35" y2="367.8006831209989" style="visibility: inherit;" fill="rgb(0, 0, 0)" stroke="rgb(204, 204, 204)" stroke-width="1px"></line><line x1="40" y1="361.0116006109937" x2="35" y2="361.0116006109937" style="visibility: inherit;" fill="rgb(0, 0, 0)" stroke="rgb(204, 204, 204)" stroke-width="1px"></line><line x1="40" y1="316.34749308439615" x2="35" y2="316.34749308439615" style="visibility: inherit;" fill="rgb(0, 0, 0)" stroke="rgb(204, 204, 204)" stroke-width="1px"></line><line x1="40" y1="290.220665053159" x2="35" y2="290.220665053159" style="visibility: inherit;" fill="rgb(0, 0, 0)" stroke="rgb(204, 204, 204)" stroke-width="1px"></line><line x1="40" y1="271.68338555779854" x2="35" y2="271.68338555779854" style="visibility: inherit;" fill="rgb(0, 0, 0)" stroke="rgb(204, 204, 204)" stroke-width="1px"></line><line x1="40" y1="257.30475451191666" x2="35" y2="257.30475451191666" style="visibility: inherit;" fill="rgb(0, 0, 0)" stroke="rgb(204, 204, 204)" stroke-width="1px"></line><line x1="40" y1="245.55655752656142" x2="35" y2="245.55655752656142" style="visibility: inherit;" fill="rgb(0, 0, 0)" stroke="rgb(204, 204, 204)" stroke-width="1px"></line><line x1="40" y1="235.6235985068899" x2="35" y2="235.6235985068899" style="visibility: inherit;" fill="rgb(0, 0, 0)" stroke="rgb(204, 204, 204)" stroke-width="1px"></line><line x1="40" y1="227.01927803120094" x2="35" y2="227.01927803120094" style="visibility: inherit;" fill="rgb(0, 0, 0)" stroke="rgb(204, 204, 204)" stroke-width="1px"></line><line x1="40" y1="219.42972949532424" x2="35" y2="219.42972949532424" style="visibility: inherit;" fill="rgb(0, 0, 0)" stroke="rgb(204, 204, 204)" stroke-width="1px"></line><line x1="40" y1="212.64064698531908" x2="35" y2="212.64064698531908" style="visibility: inherit;" fill="rgb(0, 0, 0)" stroke="rgb(204, 204, 204)" stroke-width="1px"></line><line x1="40" y1="167.97653945872153" x2="35" y2="167.97653945872153" style="visibility: inherit;" fill="rgb(0, 0, 0)" stroke="rgb(204, 204, 204)" stroke-width="1px"></line><line x1="40" y1="141.84971142748435" x2="35" y2="141.84971142748435" style="visibility: inherit;" fill="rgb(0, 0, 0)" stroke="rgb(204, 204, 204)" stroke-width="1px"></line><line x1="40" y1="123.31243193212396" x2="35" y2="123.31243193212396" style="visibility: inherit;" fill="rgb(0, 0, 0)" stroke="rgb(204, 204, 204)" stroke-width="1px"></line><line x1="40" y1="108.93380088624207" x2="35" y2="108.93380088624207" style="visibility: inherit;" fill="rgb(0, 0, 0)" stroke="rgb(204, 204, 204)" stroke-width="1px"></line><line x1="40" y1="97.1856039008868" x2="35" y2="97.1856039008868" style="visibility: inherit;" fill="rgb(0, 0, 0)" stroke="rgb(204, 204, 204)" stroke-width="1px"></line><line x1="40" y1="87.2526448812153" x2="35" y2="87.2526448812153" style="visibility: inherit;" fill="rgb(0, 0, 0)" stroke="rgb(204, 204, 204)" stroke-width="1px"></line><line x1="40" y1="78.64832440552635" x2="35" y2="78.64832440552635" style="visibility: inherit;" fill="rgb(0, 0, 0)" stroke="rgb(204, 204, 204)" stroke-width="1px"></line><line x1="40" y1="71.05877586964965" x2="35" y2="71.05877586964965" style="visibility: inherit;" fill="rgb(0, 0, 0)" stroke="rgb(204, 204, 204)" stroke-width="1px"></line><line x1="40" y1="64.26969335964446" x2="35" y2="64.26969335964446" style="visibility: inherit;" fill="rgb(0, 0, 0)" stroke="rgb(204, 204, 204)" stroke-width="1px"></line><line x1="40" y1="19.605585833046916" x2="35" y2="19.605585833046916" style="visibility: inherit;" fill="rgb(0, 0, 0)" stroke="rgb(204, 204, 204)" stroke-width="1px"></line></g><g transform="translate(30, 0)"><text x="0" y="367.8006831209989" dx="0em" dy="0.3em" style="text-anchor: end; visibility: inherit; font-family: &quot;Helvetica Neue&quot;, sans-serif; font-size: 12px; font-weight: 200;" fill="rgb(50, 49, 63)" stroke="none" stroke-width="1px">0.9</text><text x="0" y="361.0116006109937" dx="0em" dy="0.3em" style="text-anchor: end; visibility: hidden; font-family: &quot;Helvetica Neue&quot;, sans-serif; font-size: 12px; font-weight: 200;" fill="rgb(50, 49, 63)" stroke="none" stroke-width="1px">1</text><text x="0" y="316.34749308439615" dx="0em" dy="0.3em" style="text-anchor: end; visibility: hidden; font-family: &quot;Helvetica Neue&quot;, sans-serif; font-size: 12px; font-weight: 200;" fill="rgb(50, 49, 63)" stroke="none" stroke-width="1px">2</text><text x="0" y="290.220665053159" dx="0em" dy="0.3em" style="text-anchor: end; visibility: inherit; font-family: &quot;Helvetica Neue&quot;, sans-serif; font-size: 12px; font-weight: 200;" fill="rgb(50, 49, 63)" stroke="none" stroke-width="1px">3</text><text x="0" y="271.68338555779854" dx="0em" dy="0.3em" style="text-anchor: end; visibility: hidden; font-family: &quot;Helvetica Neue&quot;, sans-serif; font-size: 12px; font-weight: 200;" fill="rgb(50, 49, 63)" stroke="none" stroke-width="1px">4</text><text x="0" y="257.30475451191666" dx="0em" dy="0.3em" style="text-anchor: end; visibility: hidden; font-family: &quot;Helvetica Neue&quot;, sans-serif; font-size: 12px; font-weight: 200;" fill="rgb(50, 49, 63)" stroke="none" stroke-width="1px">5</text><text x="0" y="245.55655752656142" dx="0em" dy="0.3em" style="text-anchor: end; visibility: inherit; font-family: &quot;Helvetica Neue&quot;, sans-serif; font-size: 12px; font-weight: 200;" fill="rgb(50, 49, 63)" stroke="none" stroke-width="1px">6</text><text x="0" y="235.6235985068899" dx="0em" dy="0.3em" style="text-anchor: end; visibility: hidden; font-family: &quot;Helvetica Neue&quot;, sans-serif; font-size: 12px; font-weight: 200;" fill="rgb(50, 49, 63)" stroke="none" stroke-width="1px">7</text><text x="0" y="227.01927803120094" dx="0em" dy="0.3em" style="text-anchor: end; visibility: hidden; font-family: &quot;Helvetica Neue&quot;, sans-serif; font-size: 12px; font-weight: 200;" fill="rgb(50, 49, 63)" stroke="none" stroke-width="1px">8</text><text x="0" y="219.42972949532424" dx="0em" dy="0.3em" style="text-anchor: end; visibility: inherit; font-family: &quot;Helvetica Neue&quot;, sans-serif; font-size: 12px; font-weight: 200;" fill="rgb(50, 49, 63)" stroke="none" stroke-width="1px">9</text><text x="0" y="212.64064698531908" dx="0em" dy="0.3em" style="text-anchor: end; visibility: hidden; font-family: &quot;Helvetica Neue&quot;, sans-serif; font-size: 12px; font-weight: 200;" fill="rgb(50, 49, 63)" stroke="none" stroke-width="1px">10</text><text x="0" y="167.97653945872153" dx="0em" dy="0.3em" style="text-anchor: end; visibility: hidden; font-family: &quot;Helvetica Neue&quot;, sans-serif; font-size: 12px; font-weight: 200;" fill="rgb(50, 49, 63)" stroke="none" stroke-width="1px">20</text><text x="0" y="141.84971142748435" dx="0em" dy="0.3em" style="text-anchor: end; visibility: inherit; font-family: &quot;Helvetica Neue&quot;, sans-serif; font-size: 12px; font-weight: 200;" fill="rgb(50, 49, 63)" stroke="none" stroke-width="1px">30</text><text x="0" y="123.31243193212396" dx="0em" dy="0.3em" style="text-anchor: end; visibility: hidden; font-family: &quot;Helvetica Neue&quot;, sans-serif; font-size: 12px; font-weight: 200;" fill="rgb(50, 49, 63)" stroke="none" stroke-width="1px">40</text><text x="0" y="108.93380088624207" dx="0em" dy="0.3em" style="text-anchor: end; visibility: hidden; font-family: &quot;Helvetica Neue&quot;, sans-serif; font-size: 12px; font-weight: 200;" fill="rgb(50, 49, 63)" stroke="none" stroke-width="1px">50</text><text x="0" y="97.1856039008868" dx="0em" dy="0.3em" style="text-anchor: end; visibility: inherit; font-family: &quot;Helvetica Neue&quot;, sans-serif; font-size: 12px; font-weight: 200;" fill="rgb(50, 49, 63)" stroke="none" stroke-width="1px">60</text><text x="0" y="87.2526448812153" dx="0em" dy="0.3em" style="text-anchor: end; visibility: hidden; font-family: &quot;Helvetica Neue&quot;, sans-serif; font-size: 12px; font-weight: 200;" fill="rgb(50, 49, 63)" stroke="none" stroke-width="1px">70</text><text x="0" y="78.64832440552635" dx="0em" dy="0.3em" style="text-anchor: end; visibility: hidden; font-family: &quot;Helvetica Neue&quot;, sans-serif; font-size: 12px; font-weight: 200;" fill="rgb(50, 49, 63)" stroke="none" stroke-width="1px">80</text><text x="0" y="71.05877586964965" dx="0em" dy="0.3em" style="text-anchor: end; visibility: inherit; font-family: &quot;Helvetica Neue&quot;, sans-serif; font-size: 12px; font-weight: 200;" fill="rgb(50, 49, 63)" stroke="none" stroke-width="1px">90</text><text x="0" y="64.26969335964446" dx="0em" dy="0.3em" style="text-anchor: end; visibility: hidden; font-family: &quot;Helvetica Neue&quot;, sans-serif; font-size: 12px; font-weight: 200;" fill="rgb(50, 49, 63)" stroke="none" stroke-width="1px">100</text><text x="0" y="19.605585833046916" dx="0em" dy="0.3em" style="text-anchor: end; visibility: hidden; font-family: &quot;Helvetica Neue&quot;, sans-serif; font-size: 12px; font-weight: 200;" fill="rgb(50, 49, 63)" stroke="none" stroke-width="1px">200</text></g><line x1="40" y1="0" x2="40" y2="375" fill="rgb(0, 0, 0)" stroke="rgb(204, 204, 204)" stroke-width="1px"></line></g></g><g transform="translate(40, 0)" clip-path="url(#clip_0)"><clipPath id="clip_0"><rect width="1406" height="375"></rect></clipPath><g><g><g><line x1="18.32831593140808" y1="0" x2="18.32831593140808" y2="375" fill="rgb(0, 0, 0)" stroke="rgb(60, 60, 60)" stroke-width="1px" opacity="0.25"></line><line x1="174.69336481934354" y1="0" x2="174.69336481934354" y2="375" fill="rgb(0, 0, 0)" stroke="rgb(60, 60, 60)" stroke-width="1px" opacity="0.25"></line><line x1="331.058413707279" y1="0" x2="331.058413707279" y2="375" fill="rgb(0, 0, 0)" stroke="rgb(60, 60, 60)" stroke-width="1px" opacity="0.25"></line><line x1="487.42346259521435" y1="0" x2="487.42346259521435" y2="375" fill="rgb(0, 0, 0)" stroke="rgb(60, 60, 60)" stroke-width="1px" opacity="0.25"></line><line x1="643.7885114831499" y1="0" x2="643.7885114831499" y2="375" fill="rgb(0, 0, 0)" stroke="rgb(60, 60, 60)" stroke-width="1px" opacity="0.25"></line><line x1="800.1535603710853" y1="0" x2="800.1535603710853" y2="375" fill="rgb(0, 0, 0)" stroke="rgb(60, 60, 60)" stroke-width="1px" opacity="0.25"></line><line x1="956.5186092590208" y1="0" x2="956.5186092590208" y2="375" fill="rgb(0, 0, 0)" stroke="rgb(60, 60, 60)" stroke-width="1px" opacity="0.25"></line><line x1="1112.8836581469563" y1="0" x2="1112.8836581469563" y2="375" fill="rgb(0, 0, 0)" stroke="rgb(60, 60, 60)" stroke-width="1px" opacity="0.25"></line><line x1="1269.2487070348918" y1="0" x2="1269.2487070348918" y2="375" fill="rgb(0, 0, 0)" stroke="rgb(60, 60, 60)" stroke-width="1px" opacity="0.25"></line></g><g><line x1="0" y1="367.8006831209989" x2="1406" y2="367.8006831209989" fill="rgb(0, 0, 0)" stroke="rgb(60, 60, 60)" stroke-width="1px" opacity="0.25"></line><line x1="0" y1="361.0116006109937" x2="1406" y2="361.0116006109937" fill="rgb(0, 0, 0)" stroke="rgb(60, 60, 60)" stroke-width="1px" opacity="0.25"></line><line x1="0" y1="316.34749308439615" x2="1406" y2="316.34749308439615" fill="rgb(0, 0, 0)" stroke="rgb(60, 60, 60)" stroke-width="1px" opacity="0.25"></line><line x1="0" y1="290.220665053159" x2="1406" y2="290.220665053159" fill="rgb(0, 0, 0)" stroke="rgb(60, 60, 60)" stroke-width="1px" opacity="0.25"></line><line x1="0" y1="271.68338555779854" x2="1406" y2="271.68338555779854" fill="rgb(0, 0, 0)" stroke="rgb(60, 60, 60)" stroke-width="1px" opacity="0.25"></line><line x1="0" y1="257.30475451191666" x2="1406" y2="257.30475451191666" fill="rgb(0, 0, 0)" stroke="rgb(60, 60, 60)" stroke-width="1px" opacity="0.25"></line><line x1="0" y1="245.55655752656142" x2="1406" y2="245.55655752656142" fill="rgb(0, 0, 0)" stroke="rgb(60, 60, 60)" stroke-width="1px" opacity="0.25"></line><line x1="0" y1="235.6235985068899" x2="1406" y2="235.6235985068899" fill="rgb(0, 0, 0)" stroke="rgb(60, 60, 60)" stroke-width="1px" opacity="0.25"></line><line x1="0" y1="227.01927803120094" x2="1406" y2="227.01927803120094" fill="rgb(0, 0, 0)" stroke="rgb(60, 60, 60)" stroke-width="1px" opacity="0.25"></line><line x1="0" y1="219.42972949532424" x2="1406" y2="219.42972949532424" fill="rgb(0, 0, 0)" stroke="rgb(60, 60, 60)" stroke-width="1px" opacity="0.25"></line><line x1="0" y1="212.64064698531908" x2="1406" y2="212.64064698531908" fill="rgb(0, 0, 0)" stroke="rgb(60, 60, 60)" stroke-width="1px" opacity="0.25"></line><line x1="0" y1="167.97653945872153" x2="1406" y2="167.97653945872153" fill="rgb(0, 0, 0)" stroke="rgb(60, 60, 60)" stroke-width="1px" opacity="0.25"></line><line x1="0" y1="141.84971142748435" x2="1406" y2="141.84971142748435" fill="rgb(0, 0, 0)" stroke="rgb(60, 60, 60)" stroke-width="1px" opacity="0.25"></line><line x1="0" y1="123.31243193212396" x2="1406" y2="123.31243193212396" fill="rgb(0, 0, 0)" stroke="rgb(60, 60, 60)" stroke-width="1px" opacity="0.25"></line><line x1="0" y1="108.93380088624207" x2="1406" y2="108.93380088624207" fill="rgb(0, 0, 0)" stroke="rgb(60, 60, 60)" stroke-width="1px" opacity="0.25"></line><line x1="0" y1="97.1856039008868" x2="1406" y2="97.1856039008868" fill="rgb(0, 0, 0)" stroke="rgb(60, 60, 60)" stroke-width="1px" opacity="0.25"></line><line x1="0" y1="87.2526448812153" x2="1406" y2="87.2526448812153" fill="rgb(0, 0, 0)" stroke="rgb(60, 60, 60)" stroke-width="1px" opacity="0.25"></line><line x1="0" y1="78.64832440552635" x2="1406" y2="78.64832440552635" fill="rgb(0, 0, 0)" stroke="rgb(60, 60, 60)" stroke-width="1px" opacity="0.25"></line><line x1="0" y1="71.05877586964965" x2="1406" y2="71.05877586964965" fill="rgb(0, 0, 0)" stroke="rgb(60, 60, 60)" stroke-width="1px" opacity="0.25"></line><line x1="0" y1="64.26969335964446" x2="1406" y2="64.26969335964446" fill="rgb(0, 0, 0)" stroke="rgb(60, 60, 60)" stroke-width="1px" opacity="0.25"></line><line x1="0" y1="19.605585833046916" x2="1406" y2="19.605585833046916" fill="rgb(0, 0, 0)" stroke="rgb(60, 60, 60)" stroke-width="1px" opacity="0.25"></line></g></g></g><g><g><line x1="18.32831593140808" y1="0" x2="18.32831593140808" y2="375" fill="rgb(0, 0, 0)" stroke="rgb(153, 153, 153)" stroke-width="1.5px"></line></g></g><g><g><g><g><g><path style="fill: none;" stroke="rgb(255, 112, 67)" stroke-width="2px" d="M19.266506224735693,60.30590426915222L21.29925186027885,61.13500088855125L22.237442153606462,61.84464608562553L24.739282935813435,63.56694414341797L25.0520130335893,64.76160187488614L25.52110818025311,65.7969403495548L26.77202857135659,67.47716885327935L27.241123718020397,69.04421397903224L29.586599451339428,72.46802045210512L30.055694598003235,75.51466485683454L33.18299557576194,81.86890138005197L34.43391596686543,88.43849582365453L35.059376162417166,94.36947161318659L38.18667714017588,103.60110832092772L40.21942277571904,113.95098166604288L42.72126355792601,125.4219928624382L43.19035870458981,135.4052858490448L44.59764414458124,145.03609473125164L46.31765968234852,155.0709390106739L47.0994849267882,163.77764438488015L47.41221502456407,171.39906758792765L48.19404026900375,178.3304267539687L54.29227717563324,188.5017260598891L55.074102420072904,197.57923543630935L57.41957815339194,205.46186325941855L58.35776844671955,212.25829406008566L59.13959369115923,218.13530547424537L60.23414903337478,224.91444778451415L61.17233932670239,228.7068717173933L64.14327525557316,233.1249157826871L66.64511603778013,236.34781050752107L66.957846135556,240.94902776251314L68.20876652665949,246.16938294574135L70.08514711331472,250.10666010842488L71.49243255330613,251.06375166157983L72.74335294440961,253.59084960726503L75.24519372661659,258.2302165010604L75.87065392216832,259.85208781032935L85.09619180655652,263.76762568968405L85.25255685544445,266.9720976419793L87.91076268653936,266.4223709855376L88.37985783320316,266.099597566613L88.84895297986697,268.00695993218835L91.194428713186,269.2153457594703L91.66352385984982,271.0334541448256L91.81988890873775,271.89714667886426L93.3835393976171,266.452537245092L96.04174522871202,269.9238642646934L96.35447532648789,269.96222251601864L99.63814135313451,267.4083055535641L102.29634718422942,266.93082343262427L103.0781724286691,266.9518178805589L107.30002874864336,269.2174102666911L108.8636792375227,269.90959403348523L109.80186953085033,273.36506637066384L110.1145996286262,272.6335190558327L110.89642487306587,273.19051923702654L111.0527899219538,271.9668812820736L113.39826565527282,274.822684236914L116.21283653525568,275.3262778696865L116.52556663303154,275.501294281338L118.40194721968678,273.55366324541535L119.49650256190232,273.5363604436548L119.65286761079025,273.1596108843885L119.96559770856612,268.9980203261779L120.43469285522994,270.1300115198503L120.74742295300581,272.2215193043929L122.62380353966104,270.47263979904517L124.18745402854037,272.0905493420512L126.0638346151956,275.20913262468855L126.84565985963529,275.44167013388005L130.9111511307216,277.17996236320596L131.53661132627334,279.0020010229164L132.16207152182508,278.9914805656918L132.31843657071303,276.83782082456673L133.4129919129286,268.8315011175841L134.82027735292,271.50282420442255L135.44573754847173,270.7710671520434L136.0711977440235,272.9770505656792L136.85302298846315,273.26662164299034L137.4784831840149,273.4133058713734L138.88576862400632,271.3829893565732L139.51122881955806,271.9488067581574L139.82395891733393,269.73259255122963L140.1366890151098,268.899078991451L141.23124435732535,267.1325006755261L142.013069601765,266.05979463044144L142.3257996995409,269.76476464099323L143.10762494398057,269.1696805900842L143.42035504175644,266.9612070984404L144.04581523730818,268.4799034212722L144.67127543285994,271.1827062398957L145.60946572618755,276.18812829546425L145.76583077507547,278.5283683319631L149.36222689949798,278.73498288988446L149.98768709504972,278.1708193100514L155.1477337083516,277.19785026424233L156.24228905056717,276.6041042043977L157.18047934389475,279.3233000296144L159.36959002832586,279.3918717939204L159.9950502238776,280.84314653993647L161.08960556609316,280.5710746751954L161.40233566386902,279.665482313137L162.34052595719663,280.81748827847673L162.6532560549725,282.6743647067397L164.84236673940362,281.3646927042105L164.99873178829154,282.16000263427685L166.5623822771709,280.75900015527566L167.0314774238347,278.95280654546195L168.4387628638261,281.00028909972383L169.06422305937787,280.20195600110975L169.6896832549296,276.97032292047675L171.09696869492103,277.3835873879711L171.25333374380895,275.96988972229434L172.19152403713656,278.53255800188026L172.3478890860245,282.9443931780068L173.1297143304642,284.3577697165226L175.944285210447,286.88256170743983L176.41338035711084,285.4874401903993L177.82066579710224,284.4066039443329L182.5116172637403,279.50546845342626L184.54436289928344,277.5775535032829L185.4825531926111,280.4725330948374L185.9516483392749,280.06502223451884L186.26437843705077,279.45638049267905L186.8898386326025,280.59308942641917L187.8280289259301,283.9303392684923L188.60985417036977,285.21759869813127L190.17350465924915,279.2656204904787L191.11169495257676,280.0753794923696L191.89352019701644,279.3332941362883L193.45717068589576,281.1404772354351L194.23899593033548,284.2027745850644L200.02450273918907,285.49586504851936L200.6499629347408,287.40485537196514L200.80632798362876,291.21346199213065L200.96269303251668,284.97419644489304L203.77726391249954,287.54314078618677L205.65364449915475,284.4532807342517L205.81000954804267,285.3270223680337L206.74819984137028,285.7290196447913L207.84275518358587,281.90838203269374L211.9082464546722,284.5010731639928L213.7846270413274,283.84990913771173L215.50464257909468,286.5805595748766L215.97373772575847,282.23309537105257L216.44283287242231,283.02172588156543L219.570133850181,281.0995444803373L220.5083241435086,279.5281453836432L221.60287948572417,281.68808849579204L222.54106977905178,282.3556406695883L225.04291056125876,283.6470929503316L225.51200570792258,284.21416564369935L227.23202124568985,285.65901008280144L227.70111639235364,284.9577334099742L228.17021153901746,284.30123095306965L228.32657658790538,281.59378878573517L235.8320989345263,279.33147445233067L236.3011940811901,279.88506443368334L236.7702892278539,278.0280238307514L236.92665427674183,279.43742025162766L240.36668535227642,282.39520602626783L242.24306593893164,285.0749572019549L242.5557960367075,278.9499697123441L243.18125623225927,282.8589632815422L243.806716427811,282.86332120873277L244.43217662336275,286.5149808123306L248.34130284556113,290.9704561832438L248.49766789444908,292.8069995356616L250.21768343221635,289.4155070234267L251.46860382331982,289.4485879118475L252.0940640188716,289.70470594616927L252.40679411664746,291.5442141652097L255.06499994774234,292.5016302035289L257.41047568106137,296.3268891553149L258.0359358766131,293.33457937157874L261.9450620988115,292.83967195811476L264.44690288101845,293.21250626846165L264.6032679299064,291.1736831323276L266.94874366322546,292.0583047827245L267.5742038587772,296.121963547199L270.07604464098415,297.7988355758416L270.2324096898721,297.4191399613078L272.26515532541526,294.1747927148467L273.6724407654067,293.9906602451363L274.4542660098464,293.39299089639144L275.236091254286,292.70177916888815L275.70518640094986,295.5002893096571L276.4870116453895,298.4618274465465L276.95610679205333,300.82098929477934L278.83248737870855,295.87813906291086L280.083407769812,295.248888295322L281.17796311202756,296.8723859908759L282.2725184542431,298.7544279588973L283.67980389423457,291.12910098235477L284.3052640897863,297.4732835671829L284.61799418756215,299.7644662898882L284.93072428533804,301.2105539394452L285.39981943200183,302.6927477923298L286.49437477421736,299.2352930998466L287.9016602142088,297.91986038781283L289.46531070308816,294.9721701700713L290.0907708986399,295.51268999250664L290.40350099641574,289.4331025228866L290.87259614307953,295.9232525031674L291.6544213875193,298.7601617262571L292.12351653418307,303.84898850227654L292.279881583071,303.2890256740688L292.4362466319589,305.4175688569393L295.4071825608297,301.38733310379075L296.81446800082114,299.74826032661605L297.7526582941487,302.9356043395016L298.84721363636424,298.131942372618L299.0035786852522,302.806023732613L300.4108641252437,301.33805282133505L301.5054194674592,301.3643822235888L304.78908549410585,298.9974689052297L305.4145456896576,295.9777048196548L306.9781961785369,301.14420159744395L307.60365637408864,304.0336443557827L309.0109418140801,303.4066033771192L311.04368744962323,305.78631066854945L311.512782596287,303.4954074788829L312.45097288961466,304.35948592352344L312.7637029873905,301.10488992743035L318.08011464958037,299.35521503427333L319.01830494290795,303.347321869046L321.6765107740028,302.4614538443758L321.9892408717787,303.7345453144339L323.24016126288217,304.55951241373157L323.70925640954596,298.8557527319897L324.02198650732186,301.7399169102262L326.8365573873047,303.7196467597669L329.02566807173577,308.00649478747994L329.33839816951166,307.24354803534334L332.1529690494945,304.37098873571307L332.77842924504625,308.33636680041343L334.02934963614973,308.8007699949191L336.68755546724464,309.3089087203921L337.6257457605722,310.6025516635471L341.3785069338827,309.0959133506373L343.2548875205379,306.68676955439014L343.4112525694258,302.5540578091041L343.88034771608966,300.5556717040502L344.0367127649776,297.7077906768539L344.34944286275345,303.886974650135L344.66217296052935,307.15162353798985L345.2876331560811,305.4554898652558L345.9130933516328,303.4183348781721L347.00764869384835,304.26138020303165L349.3531244271674,304.0631301118338L354.6695360893572,301.8508950901912L355.29499628490896,306.60764164033304L355.6077263826848,309.4248909494697L356.3895516271245,298.2637145135796L357.79683706711586,301.55376663227497L359.6732176537712,307.5950563672444L361.2368681426505,305.0620095533176L361.5495982404264,309.2631578335928L361.86232833820225,309.9893433555152L362.01869338709014,307.51624837490266L362.6441535826419,310.7412924265365L363.1132487293057,313.29603653887864L364.3641691204092,312.46067678750364L364.98962931596094,309.55070171684457L367.178740000392,305.9411698993872L368.11693029371963,308.8890314443104L368.8987555381593,307.51488959243056L369.05512058704727,306.00238709880387L369.36785068482317,310.87224602312483L369.8369458314869,309.96264297749525L370.46240602703864,309.8128817039344L370.61877107592665,310.2689132642538L371.7133264181421,309.96589480622896L372.18242156480596,306.848211905772L372.9642468092457,311.15604853266944L375.9351827381164,312.17294414857435L377.4988332269958,309.5002627484798L378.4370235203234,308.28264173421735L379.37521381365104,310.5499112847693L380.0006740092027,306.4334136228405L381.87705459585794,308.27081310371966L382.03341964474595,306.41163661791734L385.94254586694433,308.5590850778604L387.3498313069357,313.81010835676136L390.0080371380306,311.60880174392827L392.8226080180134,303.9100384107772L392.9789730669014,308.12344691674394L393.29170316467724,307.4276819487905L394.8553536535566,307.09681051875407L395.48081384910836,309.8644133672558L398.4517497779791,308.4161823596004L400.1717653157464,301.90840891179204L401.4226857068499,303.17150837599434L402.36087600017754,306.54121928779284L402.51724104906543,308.0299717756951L402.8299711468413,311.6753544311535L403.1427012446172,315.65882629955297L403.92452648905686,321.00180591333316L407.83365271125524,316.0418190430943L407.99001776014325,314.3635690136543L409.55366824902256,317.60162661723734L409.8663983467984,311.4758804705748L410.6482235912381,309.7075641272L412.8373342756692,312.3859154845731L413.77552456899684,308.7574625555916L415.1828100089882,311.7440442532141L417.5282857423072,312.2779667547464L418.15374593785896,306.2855265798982L418.46647603563486,308.7737236778151L420.499221671178,314.56007887598L422.37560225783324,312.41208127795966L424.25198284448845,314.01710434956635L425.8156333333679,315.85716859009455L426.75382362669546,319.286315307035L429.4120294577903,319.483153838631L430.350219751118,323.1805693330739L430.5065848000059,317.3127958282855L431.7575051911094,316.0415644435292L432.69569548443695,316.0988398897427L433.6338857777646,315.65920103286567L434.4157110222043,313.34345805986675L438.0121071466268,309.22630303405714L439.1066624888424,303.5650204758854L439.88848773328203,305.8838667408358L441.9212333688252,305.5564827624944L443.01578871104067,312.2701381689995L445.36126444435973,313.37386537759187L447.23764503101495,314.60783153519816L447.7067401776788,319.2252861122813L449.89585086210985,312.39645329384723L450.05221591099786,314.18579953532486L450.3649460087737,314.21378772441034L455.3686275731876,316.55836619078764L455.52499262207556,316.1782899821801L455.68135767096345,314.089926578314L456.77591301317904,314.8558857932985L458.49592855094636,317.23142472228415L460.8414042842653,316.8374828981762L461.62322952870505,316.8370724058103L466.3141809953431,309.5463201906849L468.34692663088623,313.325565181023L469.7542120708777,319.51058872206187L471.16149751086914,319.64306376923537L472.0996878041967,323.7250729390155L472.72514799974846,325.8699863224242L475.3833538308434,324.6977586490305L475.69608392861926,320.7830977132814L475.85244897750715,318.65899905667993L477.72882956416237,315.6212633589988L480.5434004441453,316.4629107235701L483.2016062752402,318.7828559149428L484.45252666634366,318.6346193791915L488.04892279076614,316.1035953844267L489.4562082307575,317.5491416677832L489.7689383285334,316.9150345075169L490.08166842630925,321.0969803946876L490.707128621861,323.09190606253793L490.863493670749,325.22226867406243L492.5835092085163,316.944633163642L493.05260435518005,318.89963480779335L494.30352474628353,320.7471606685335L494.7726198929474,322.1743719869468L496.17990533293874,313.3757297606636L498.5253810662578,316.65254779124723L499.15084126180955,320.55692148414465L499.4635713595854,325.50465558939754L501.80904709290445,327.5600256726994L503.8417927284476,324.41726810022965L507.43818885287016,322.7606378351705L509.7836645861892,324.7124265291238L509.9400296350771,320.5588301158893L511.0345849772927,319.8475723901329L511.8164102217323,318.60611223609123L512.598235466172,311.2785995420682L513.2236956617237,317.8177602502773L513.5364257594996,318.35490232364367L516.0382665417065,314.32266287173695L518.8528374216894,314.34550150923064L519.0092024705773,312.63011286524903L520.1037578127929,316.04418514220725L520.5728529594567,318.32516663378675L524.3256141327672,316.10264208256183L524.794709279431,311.5198766257245L525.8892646216465,317.54604122253585L526.3583597683103,317.8531389743788L526.5147248171983,317.33821883071363L526.8274549149742,321.19983960100205L526.9838199638621,326.3431047777433L530.8929461860604,320.9165779524692L532.3002316260519,327.23302776414573L536.0529927993623,318.48038349803153L537.3039131904658,322.6584399112113L539.493023874897,320.2873438099333L539.6493889237848,321.9704595144242L540.4312141682245,321.63841442915555L542.3075947548797,327.0604733239629L546.8421811726298,321.8854775443782L547.1549112704057,322.9624158207003L547.4676413681816,315.89122247968555L548.7185617592851,317.3632372286728L551.3767675903799,320.37268452374366L552.1585928348197,322.19522829621894L555.5986239103543,324.8821756940565L556.067719057018,325.0555619294752L556.8495443014577,324.94789423192685L558.569559839225,328.44795585098L558.8822899370009,333.0545212624622L559.8204802303285,327.65447040898937L559.9768452792165,327.5097255335313L560.9150355725441,322.9191331757454L562.0095909147595,322.6977356835598L562.9477812080872,325.0367279160506L563.416876354751,318.46431634150025L566.075082185846,309.93449459077164L567.9514627725011,317.96161066432387L568.4205579191649,319.9572061713576L569.5151132613805,321.2665406969894L572.0169540435875,322.4862826076679L572.3296841413634,324.55509434122155L573.267874434691,324.95249707187713L573.8933346302427,323.5954500114313L576.3951754124497,328.63592456174246L579.0533812435445,327.09786511730385L582.1806822213033,322.0880911324137L584.9952531012862,323.09271065538104L585.307983199062,326.3873430221262L585.6207132968378,328.63501829683946L586.0898084435016,330.2039068937069L586.5589035901655,333.1086819498615L589.2171094212604,330.73057348704356L590.9371249590276,331.5151201905395L591.0934900079156,330.7442898750113L593.1262356434587,335.7290943174786L597.8171871100968,322.09487912660427L598.1299172078727,316.48506811578727L601.8826783811832,320.1274421238508L602.508138576735,322.06403415612897L602.8208686745107,322.32902023486076L603.7590589678384,321.5369287028816L604.2281541145021,321.36717927825464L604.540884212278,320.9090033981991L605.9481696522695,319.8563417854604L607.0427249944851,323.5829428835511L609.0754706300281,321.11590134687657L610.3263910211316,327.5872967239474L612.3591366566748,330.51712257265996L612.6718667544507,335.5169784677911L613.1409619011146,336.00923427470855L615.0173424877697,333.15800416842137L615.6428026833214,330.71137409473533L616.4246279277612,336.2716558998232L616.737358025537,333.877995528924L618.3010085144164,322.33236976563575L618.9264687099682,320.63719127350976L623.4610551277183,326.6292657979117L624.2428803721579,323.7906601977746L625.3374357143734,324.38965326174616L629.4029269854598,330.1748133964966L630.6538473765632,330.5824180635455L632.2174978654426,327.30065151277563L633.4684182565461,326.53130822919024L634.5629735987617,324.33073345380876L635.1884337943134,326.59442965864383L636.9084493320806,324.5792214667983L637.8466396254083,323.930152961404L638.7848299187359,328.59666093662804L642.2248609942706,323.69488210524037L643.9448765320378,325.5945852437459L644.7267017764775,327.802891175408L646.133987216469,325.94875070716205L646.2903522653569,333.87996843464487L648.1667328520122,326.0002670601956L649.8867483897794,326.03395387924223L650.3558435364432,319.3656666154714L651.9194940253226,322.14545611854373L659.2686513230555,322.6006495352487L660.0504765674953,328.59964888084903L660.2068416163831,331.18626566821973L661.7704921052625,332.10431108095236L673.1851406740817,333.2297531827143L674.9051562118491,329.40616083119926L675.061521260737,328.68915319409973L675.3742513585129,330.3748109624771L675.6869814562888,336.61539735625075L676.1560766029526,332.6312729900102L676.3124416518405,324.54439156950053L680.2215678740389,319.1254544211679L681.0033931184785,326.82629169074073L681.4724882651424,327.91803924037873L682.7234086562459,329.5232107896222L684.4434241940131,326.12051216563435L685.8507096340045,327.6472037614135L686.3198047806684,330.2322125842362L686.4761698295563,329.73397613015084L688.8216455628753,332.95097189533044L691.3234863450823,336.2383579314286L692.2616766384099,329.43469727661835L692.8871368339617,329.6317246554819L694.294422273953,324.8823216095777L694.607152371729,324.37412020657473L696.0144378117203,329.4677412854225L696.6398980072721,330.4235037414424L697.5780883005997,322.62229752697067L698.3599135450394,323.7046946418205L702.4254048161257,322.7978072429902L703.8326902561171,313.38640190871297L706.1781659894361,318.1227542820618L707.2727213316517,325.3063533049053L708.2109116249793,327.11657575036116L708.836371820531,334.80098266159774L708.992736869419,337.13435064602226L711.9636727982897,329.7220206245521L712.4327679449536,325.1770393408124L713.3709582382811,322.5725134210658L718.0619097049192,324.7129288147058L719.0000999982469,327.55158021149913L719.6255601937987,330.52402465456527L720.0946553404624,328.47125338258917L721.3455757315659,330.7537698303868L721.6583058293417,334.40220341753144L724.3165116604366,334.5262878530271L724.4728767093246,335.8451150971449L727.4438126381955,329.35319220039224L727.6001776870833,329.4219218236881L728.0692728337472,325.1062707709162L729.4765582737384,324.81460431185593L730.7274786648419,321.52138472786044L731.0402087626179,325.25380051281303L731.1965738115059,328.5210714695828L735.1057000337042,333.89462637454477L735.574795180368,333.7618605158948L737.2948107181353,335.8238350320901L737.7639058647992,336.66645001677233L738.076635962575,336.43365593516444L738.3893660603509,336.7253459195792L740.2657466470062,333.9546938711861L742.923952478101,329.2924848506591L746.2076185047476,334.21200780718334L747.3021738469632,336.32985589988175L748.5530942380667,336.97707497007997L749.1785544336184,328.7922168058407L750.2731097758339,329.45211168762404L750.4294748247219,334.0122448628792L750.5858398736099,333.4482726370538L752.1494903624891,331.8939172561147L756.2149816335755,332.27648348715934L756.9968068780151,330.801837354479L759.4986476602221,331.139037025672L761.2186631979894,329.6825602139156L761.844123393541,333.9723051113456L762.0004884424291,332.6047133974083L763.2514088335325,331.6691368799133L763.7205039801964,337.0236736726538L763.8768690290843,341.13343810020933L764.1895991268602,331.7707441269729L764.658694273524,326.89822444840956L766.0659797135154,324.7204205867118L766.6914399090672,325.2835118980105L767.7859952512827,327.19114310224774L767.9423603001707,324.7557975762662L768.8805505934984,329.474466826855L769.8187408868258,327.65298825887476L770.1314709846018,321.4418235389874L770.6005661312655,330.3349167012111L776.0733428423433,333.6906091681839L777.9497234289986,331.73274490710065L780.9206593578693,323.18006425042205L781.2333894556452,330.8632129625341L783.7352302378522,326.8156166081085L784.204325384516,326.96937091087455L784.5170554822919,332.8104117477023L784.6734205311797,328.15570280645034L787.6443564600505,325.0877390725792L791.397117633361,319.82475937432935L791.8662127800247,320.68544856447477L793.8989584155679,328.5846365677876L795.1498788066714,325.06446111843263L796.5571642466629,327.6297521502121L797.0262593933267,335.4368961785124L797.3389894911026,341.80376247071337L797.4953545399903,338.387755177423L799.6844652244215,333.30656778769867L800.935385615525,337.07427164747685L804.3754166910596,338.400509076066L805.3136069843872,338.5392595338159L805.7827021310511,339.468886184589L806.8772574732666,336.39072630161127L808.9100031088097,329.5572953585535L809.2227332065855,327.8769874504082L809.3790982554735,319.3907082878985L810.473653597689,321.7225498223049L813.2882244776719,329.3198576450746L816.8846206020945,316.4719885892288L817.6664458465341,319.45336174516854L817.8228108954221,321.2970550818375L820.793746824293,326.0088934998949L821.1064769220687,324.55276370724516L822.0446672153964,330.0963225104582L826.1101584864825,334.021410284662L826.8919837309223,329.62680823763225L828.9247293664655,331.8305751339761L829.5501895620172,331.60519658250684L832.3647604420001,334.2107433794411L833.6156808331036,326.7328350078632L837.212076957526,329.6297149078687L837.68117210419,327.97584270331896L837.8375371530777,331.3082226016358L838.4629973486295,332.4645858588286L838.6193623975174,329.9384507290857L839.2448225930692,328.9511690449483L842.6848536686039,329.12915390554895L846.2812497930263,327.3216918196524L848.3139954285695,324.93936188463374L850.8158362107764,330.2485358507602L852.5358517485438,330.19975813404324L855.0376925307507,328.10576102202367L857.2268032151817,330.94535529005475L857.3831682640697,336.0097109963256L857.8522634107335,334.8579546113796L860.5104692418284,336.31091311400615L861.1359294373801,328.81647610234455L864.263230415139,330.70650664086764L864.5759605129148,339.5762059051205L866.765071197346,333.31642895780396L867.5468964417855,334.61229793460734L869.7360071262166,335.24312979503014L869.8923721751046,341.3903475307985L870.2051022728804,332.32636993124333L870.98692751732,333.5845199498182L875.3651488861823,330.8557806485559L876.7724343261737,323.5376334242962L877.8669896683894,323.0434009723885L878.492449863941,327.95350771902145L879.4306401572686,333.0702097114334L880.3688304505963,334.86802702580695L881.1506556950359,340.6495031939488L881.6197508416998,340.44741626713244L881.9324809394756,342.2567947013684L884.2779566727946,336.08219916211874L885.685242112786,338.6183697225156L886.9361625038896,339.84212632737905L889.5943683349843,343.0728964544469L890.3761935794241,342.37256803944115L890.6889236772,337.30799320802896L892.5653042638552,344.19292090206284L892.878034361631,341.7971074781724L893.8162246549587,340.14148895046446L895.6926052416139,343.99594059162354L896.4744304860536,343.30395834973865L898.0380809749329,346.53767749585836L899.6017314638123,341.9434110448991L903.9799528326745,346.0240948457949L904.2926829304504,336.43388297160624L904.9181431260022,338.45328655154816L907.2636188593211,325.0025360878085L913.6745858637264,326.0363372731722L914.1436810103903,328.0386895907724L914.7691412059421,324.970769104397L916.958251890373,332.7035540530818L918.6782674281405,337.07454149931397L919.772822770356,340.2973738727697L922.4310286014509,335.770292592335L922.9001237481147,336.3696346519068L923.6819489925543,333.7520593608676L924.4637742369941,332.96017781597124L925.4019645303216,335.4063581410665L927.2783451169769,333.873963103544L927.4347101658648,331.3748467380875L930.0929159969597,334.5236703667438L930.5620111436235,338.7529589225109L931.6565664858391,332.40523657758786L935.8784228058133,331.4423472157313L936.1911529035892,333.87256166381377L937.2857082458048,338.1529554263882L940.1002791257877,337.01102929187243L940.4130092235634,340.9181781207804L941.5075645657789,341.6528549080233L942.9148500057704,335.34374257575917L944.4785004946498,332.02060741963635L944.6348655435378,335.9908658640602L946.198516032417,334.4595245835708L946.8239762279687,334.5283757683119L946.9803412768567,331.6158031174731L949.9512772057275,328.07904861006307L950.7331024501672,330.54768558646623L951.0458325479431,329.7648877224352L951.6712927434949,326.8647134992606L953.0785781834863,326.57544129986115L955.8931490634691,331.94342801309205L959.0204500412277,334.3338500408909L959.8022752856674,342.0489697397183L961.2095607256589,342.82670821045474L962.1477510189866,342.23593819707304L962.3041160678744,341.09780877572723L962.4604811167624,339.72492252176113L962.9295762634262,335.15452797450934L963.3986714100901,325.81776366628725L966.8387024856245,332.02248018695093L969.4969083167194,336.5424191117611L969.6532733656073,339.29626434762963L970.2787335611591,332.93639074955416L971.0605588055988,330.89100548594905L972.1551141478143,334.44836064978085L973.5623995878058,327.9576477116012L973.8751296855816,325.5373027722899L975.4387801744609,323.5995328404383L976.3769704677886,332.93997536576L976.6897005655644,323.23575630319624L977.6278908588921,329.07434825647397L977.9406209566679,334.19609111479673L978.2533510544439,330.90495123530286L980.129731641099,328.76155979195556L980.4424617388748,319.77247678695517L980.7551918366509,324.42379836458656L984.3515879610733,329.68905790314597L985.7588734010648,330.59296858335597L986.2279685477284,325.97541916786884L988.7298093299356,323.53319664107096L990.2934598188149,332.6351353645074L990.4498248677028,340.146749110232L990.7625549654786,332.02021507532146L991.7007452588063,332.65590012827505L992.638935552134,334.5094232472431L993.7334908943494,327.12472848300104L994.5153161387892,330.09094961100607L995.6098714810047,332.2751654725902L996.5480617743324,337.18114868274023L998.5808074098754,337.83613919940956L1002.6462986809618,333.64542949475856L1005.7735996587204,338.7975196741806L1006.2426948053843,335.6262027286247L1006.8681550009361,335.8148544764373L1007.0245200498239,334.3680272851477L1008.1190753920396,333.59836936517416L1010.7772812231344,332.0028743586771L1012.4972967609017,331.21499598946934L1014.217312298669,329.4185498400336L1015.3118676408847,332.35928603036166L1016.2500579342121,332.02666258156023L1020.0028191075226,332.0171002891406L1027.3519764052555,336.12542305498295L1028.6028967963591,334.8411252192478L1029.2283569919107,335.2800094411332L1031.261102627454,338.1388960407943L1032.9811181652212,332.97636484068437L1033.606578360773,338.23368589613557L1034.8574987518764,333.7381951297376L1035.0138638007643,332.5914909682358L1035.639323996316,336.13177980279147L1037.0466094363076,328.48717634254785L1037.2029744851955,327.81484878150286L1038.7666249740748,329.0069381177991L1038.9229900229627,338.2213234760844L1039.0793550718508,338.4659503264077L1040.3302754629542,341.7485635957845L1043.457576440713,331.6738074349748L1047.2103376140233,334.04307584042124L1047.835797809575,332.6856406377217L1048.148527907351,329.2738252623675L1048.304892956239,328.5009481834695L1048.7739881029026,325.936165881278L1050.3376385917823,332.81907056768637L1051.7449240317735,334.7615017762093L1052.2140191784374,321.56375110256204L1053.7776696673166,327.7807453716346L1054.5594949117562,331.64427325174506L1060.188636671722,336.9737873272488L1061.5959221117134,342.24592257791846L1061.9086522094894,345.17038104223167L1062.534112405041,347.54299321611546L1063.4723026983686,342.3613093316498L1063.9413978450325,342.488975396479L1065.035953187248,341.3989717126119L1066.2868735783516,347.64753960098994L1066.7559687250152,342.09169785220803L1068.0068891161188,342.27901764965645L1068.6323493116704,337.58813176281416L1069.2578095072222,337.039602662209L1070.8214599961016,336.6552604257222L1070.9778250449897,333.9764249672331L1072.8542056316448,337.4814477843979L1073.4796658271966,334.5742106817093L1074.574221169412,334.8262635400893L1075.1996813649637,335.85492566466684L1076.9196969027312,335.12259921842565L1078.7960774893863,340.1096522587816L1081.2979182715933,344.0405451898863L1085.2070444937917,340.5880840880715L1087.5525202271108,343.9561401629064L1089.7416309115417,337.83923486211745L1090.3670911070935,341.3254206665481L1090.9925513026453,335.11824140893043L1092.2434716937487,336.88540113920106L1093.1816619870763,338.4440481477278L1093.3380270359644,338.31153114441133L1095.9962328670592,341.2737622588588L1097.4035183070507,338.20206711094005L1098.3417086003783,334.85960718027417L1099.592628991482,334.9892671180174L1100.0617241381456,336.21621407033547L1103.50175521368,337.8770436357903L1106.159961044775,340.431586474163L1106.7854212403267,341.5210841822188L1108.0363416314303,343.2518729384907L1108.505436778094,341.8249520803214L1109.4436270714216,343.1196882901456L1112.2581979514046,344.7630330264434L1112.5709280491803,351.86853798769056L1115.385498929163,347.3087620722728L1116.0109591247149,341.5533467212481L1116.4800542713788,338.3772970024464L1118.8255300046978,342.1244384662294L1119.2946251513615,342.0180498619159L1119.9200853469133,345.2891315579576L1121.014640689129,339.9601556224966L1123.047386324672,338.6897908394295L1123.9855766179996,335.3096659578002L1126.1746873024308,340.6404328186328L1128.051067889086,331.72940823619393L1129.1456232313014,330.9819956348817L1130.396543622405,322.8423268420049L1131.6474640135084,321.66016077023914L1131.8038290623965,330.7313467698143L1132.5856543068362,335.5937736600956L1133.211114502388,337.94103484327496L1135.243860137931,338.7478990976252L1135.8693203334828,335.95987938162784L1138.0584310179138,335.15064527190736L1139.934811604569,333.2071658712497L1140.091176653457,332.7265134863729L1141.1857319956725,337.6229460865495L1142.4366523867761,338.0547805951912L1143.3748426801037,332.1260967824347L1144.3130329734313,333.761739570374L1145.4075883156468,329.99742276527223L1145.7203184134225,326.78009692105985L1147.127603853414,324.46231008130286L1147.44033395119,329.65872605505024L1147.596699000078,322.8225886206459L1150.5676349289488,320.5210197822049L1151.0367300756125,326.2180576410068L1152.444015515604,325.07758584203566L1154.476761151147,328.7589062639897L1156.1967766889143,332.1015579039319L1156.6658718355782,333.9324563235068L1158.2295223244575,332.90561583066625L1160.7313631066645,335.1363481822675L1162.4513786444318,337.43094277976354L1165.2659495244145,334.96576220059495L1166.829600013294,335.9622473537579L1166.985965062182,335.5941739271755L1167.7677903066215,338.25795845530433L1167.9241553555096,338.463265151768L1169.018710697725,343.45134213145036L1169.6441708932769,339.73654689770973L1169.8005359421647,340.9258758387143L1169.9569009910526,345.0447604500691L1173.3969320665874,343.3717402644302L1173.5532971154753,342.16027035220924L1174.178757311027,341.3763632350412L1174.4914874088029,343.92596707746924L1175.8987728487944,345.76540085941673L1176.524233044346,344.09018086890995L1176.9933281910098,340.00417047539315L1181.0588194620962,334.04785028034826L1181.215184510984,328.1590564137549L1182.6224699509755,333.0542579929639L1183.0915650976392,334.92753679273983L1183.717025293191,331.76196095851174L1184.186120439855,335.8024654962136L1185.7497709287343,335.57444840249434L1185.906135977622,331.61413534514907L1186.06250102651,334.88944058986965L1186.218866075398,340.86547260876443L1187.0006913198376,341.64923171013515L1187.9388816131652,339.7181359407689L1188.564341808717,339.4248152521493L1188.8770719064928,344.43200910593447L1191.3789126886998,345.49788601212043L1192.3171029820276,346.05675577569707L1192.4734680309152,343.89480820091455L1193.7243884220188,337.16902441403215L1194.6625787153464,341.42884877795046L1196.6953243508897,342.80731584752164L1197.7898796931051,342.8899663090524L1199.3535301819845,332.25963680520897L1203.4190214530709,327.4175112027339L1207.0154175774935,329.60436857758896L1208.109972919709,329.84214990065414L1209.0481632130366,336.5778245409373L1209.5172583597005,332.3947141131855L1214.3645748752265,333.6281770610612L1214.5209399241141,337.5692925372224L1217.022780706321,337.9447701247068L1217.1791457552092,336.79238836147323L1218.7427962440886,334.69611894565173L1219.2118913907523,344.30720156848173L1219.5246214885283,348.1014351780929L1221.2446370262955,349.4877644505384L1222.1828273196231,342.26725044599857L1222.651922466287,344.0344202447097L1223.2773826618386,346.1216275176894L1225.7792234440456,338.54797954817474L1226.0919535418213,337.02277128215434L1226.2483185907095,337.48727398165863L1226.8737787862613,338.78816932126557L1227.3428739329252,333.5103586686283L1227.655604030701,327.15063281408914L1229.844714715132,329.7880450684241L1230.4701749106837,328.28669657404527L1232.190190448451,335.815229952635L1232.6592855951149,339.5659424877066L1235.7865865728736,341.8706614099674L1237.037506963977,339.3687542247599L1238.6011574528563,329.8990914992303L1238.7575225017442,330.7471115231397L1240.4775380395115,339.05061987206733L1244.0739341639342,342.47878406305L1244.8557594083738,334.2237414801957L1247.5139652394687,336.440129029077L1251.1103613638911,326.2104216723366L1251.423091461667,331.50107862660195L1254.3940273905378,329.1497596483374L1254.5503924394259,333.03520397853794L1255.1758526349777,334.94675246982905L1255.8013128305292,335.41421363354414L1258.615883710512,336.3888211199296L1259.5540740038398,338.0255478631631L1259.7104390527277,339.9636987100884L1266.277771106021,335.4884808875518L1267.5286914971246,331.6082400403875L1268.779611888228,330.82918727375846L1268.9359769371158,337.7305044057847L1271.5941827682107,339.3756920644008L1272.8451031593142,334.81794996862607L1273.626928403754,339.66024414140827L1274.2523885993055,340.9366597513606L1275.972404137073,345.2785635773217L1277.8487847237282,342.18892750212035L1278.317879870392,342.9677856630794L1278.6306099681678,344.8368897317096L1279.2560701637196,342.33077653731493L1280.506990554823,337.00207017112643L1286.6052274614524,338.14865095401126L1289.888893488099,341.99447322153395L1290.8270837814266,339.07826273174317L1290.9834488303147,334.7514425444691L1291.2961789280905,332.88766119529095L1293.6416546614093,337.0115837604442L1294.736210003625,335.7340643154928L1298.3326061280475,337.03124917390767L1298.6453362258235,336.13351578790673L1298.9580663235993,342.0866637129809L1300.6780818613668,334.32373804856843L1301.1471770080304,338.7688012038681L1303.8053828391253,333.48032216956057L1304.7435731324529,331.40349148014985L1306.7763187679961,335.29779679856995L1309.9036197457547,336.3787070984672L1311.3109051857462,340.58348788617536L1313.5000158701773,338.0206441131021L1313.812745967953,338.86797304002874L1314.1254760657291,341.37492781676184L1315.5327615057206,334.54121278981984L1316.9400469457119,337.8887009097504L1318.1909673368154,334.2750330350021L1321.3182683145742,333.35937691404615L1321.63099841235,337.3695078483971L1322.1000935590139,340.15073436864697L1322.4128236567897,337.6022855561666L1323.3510139501172,337.3747278980355L1325.2273945367724,333.0445450371807L1325.3837595856603,336.3023381999868L1326.478314927876,336.8712256880537L1326.9474100745397,333.4682270149487L1327.7292353189794,334.58386877909004L1328.8237906611948,337.6608514943308L1329.1365207589708,344.4352919684577L1333.8274722256087,343.45369195803147L1337.1111382522554,342.80964640832013L1338.8311537900229,344.83357951039574L1339.3002489366866,342.4292860905865L1340.0820741811262,348.8715857407264L1341.3329945722298,338.22162247514524L1342.5839149633332,335.57512248709685L1343.209375158885,336.54500358159345L1343.3657402077731,335.64406723660323L1343.678470305549,338.4695417079289L1344.1475654522128,340.7523848452398L1345.2421207944283,337.2836896754809L1345.8675809899798,339.2969793586967L1346.4930411855316,340.93637311112286L1347.9003266255231,341.0611040675597L1348.056691674411,341.426135798798L1348.8385169188507,341.16489662058945L1349.4639771144025,344.40039469937506L1349.6203421632904,346.6716236815994L1351.9658178966095,346.3031409402922L1356.0313091676958,350.6257958563226" fill="none"></path></g></g></g></g><g opacity="0.2"><g><g><g><path style="fill: none;" stroke="rgb(255, 112, 67)" stroke-width="2px" d="M19.266506224735693,60.30590426915222L21.29925186027885,61.72178195334624L22.237442153606462,62.69943578194494L24.739282935813435,66.29997796507308L25.0520130335893,66.93588169273238L25.52110818025311,67.85547542235173L26.77202857135659,71.0808694633098L27.241123718020397,72.53344951279394L29.586599451339428,80.70464890408124L30.055694598003235,82.90896816764956L33.18299557576194,99.12943838534608L34.43391596686543,106.58955536822674L35.059376162417166,110.53240044135964L38.18667714017588,131.95076695076511L40.21942277571904,147.27648034981607L42.72126355792601,164.2369391819026L43.19035870458981,167.2261828041072L44.59764414458124,175.35033656289994L46.31765968234852,187.19235535875305L47.0994849267882,190.2782268511446L47.41221502456407,193.71640641192042L48.19404026900375,198.15565482725685L54.29227717563324,221.29109725938775L55.074102420072904,225.62473186181327L57.41957815339194,228.77475042477383L58.35776844671955,231.61873612197985L59.13959369115923,234.3770513896846L60.23414903337478,244.21593577827065L61.17233932670239,238.5336554268476L64.14327525557316,244.78988812801862L66.64511603778013,244.56082687767721L66.957846135556,253.16591380917856L68.20876652665949,260.29895462121885L70.08514711331472,260.35321940753516L71.49243255330613,253.3538378200911L72.74335294440961,259.90394288314707L75.24519372661659,270.56298019113217L75.87065392216832,263.80317197102636L85.09619180655652,273.95108321936794L85.25255685544445,275.133996773061L87.91076268653936,265.1576258869554L88.37985783320316,265.3526886905558L88.84895297986697,272.6901283204549L91.194428713186,272.1262881022946L91.66352385984982,275.48650713259025L91.81988890873775,273.9586225345169L93.3835393976171,255.29467438673754L96.04174522871202,278.83442307310634L96.35447532648789,270.0518139985079L99.63814135313451,261.81559819418305L102.29634718422942,265.8302684880398L103.0781724286691,267.00083154270646L107.30002874864336,274.83579979837623L108.8636792375227,271.55420557527685L109.80186953085033,282.2308148994439L110.1145996286262,270.9581969505338L110.89642487306587,274.5092219052399L111.0527899219538,269.198973457013L113.39826565527282,282.0239040188003L116.21283653525568,276.5168650911135L116.52556663303154,275.91152407657523L118.40194721968678,269.22583027776375L119.49650256190232,273.4960052990265L119.65286761079025,272.28900151064016L119.96559770856612,260.22049771656305L120.43469285522994,272.85132464739354L120.74742295300581,277.38308667120975L122.62380353966104,266.5675584806013L124.18745402854037,276.03156295069596L126.0638346151956,283.13257324766386L126.84565985963529,275.9875435317012L130.9111511307216,281.4281948080966L131.53661132627334,283.4651638445237L132.16207152182508,278.96693950987947L132.31843657071303,272.07602617037344L133.4129919129286,253.2966962366892L134.82027735292,278.20354931386146L135.44573754847173,269.09527359927654L136.0711977440235,278.4385139037015L136.85302298846315,273.9473914648785L137.4784831840149,273.75687323291555L138.88576862400632,266.8804765204418L139.51122881955806,273.2886955561603L139.82395891733393,264.83988758307027L140.1366890151098,266.9951459279338L141.23124435732535,263.1896075989266L142.013069601765,263.6241508357305L142.3257996995409,279.34061152452125L143.10762494398057,267.8021575972071L143.42035504175644,262.0846801491092L144.04581523730818,272.1692478510161L144.67127543285994,277.9684602834492L145.60946572618755,289.6453551361487L145.76583077507547,284.3440211121955L149.36222689949798,279.21967564069325L149.98768709504972,276.8733345839349L155.1477337083516,274.9831431183694L156.24228905056717,275.2396096378193L157.18047934389475,286.1533936593768L159.36959002832586,279.5521569297928L159.9950502238776,284.36224527172806L161.08960556609316,279.9406724564701L161.40233566386902,277.60065181285665L162.34052595719663,283.5884072429013L162.6532560549725,287.2272307789743L164.84236673940362,278.4084979769296L164.99873178829154,284.05481330947407L166.5623822771709,277.6038010624492L167.0314774238347,274.9253972090648L168.4387628638261,286.0470337539953L169.06422305937787,278.37676597972853L169.6896832549296,270.0060850047707L171.09696869492103,278.358305106049L171.25333374380895,272.78709934404395L172.19152403713656,284.9409752332501L172.3478890860245,294.5911860926534L173.1297143304642,287.7814470486038L175.944285210447,293.18950874972467L176.41338035711084,282.3450284280259L177.82066579710224,281.95299857782106L182.5116172637403,269.3394135074705L184.54436289928344,273.2914755699069L185.4825531926111,287.7807271646836L185.9516483392749,279.12406778235953L186.26437843705077,278.05818241684466L186.8898386326025,283.32609046330464L187.8280289259301,292.46327514955124L188.60985417036977,288.3251493303646L190.17350465924915,267.20277444925307L191.11169495257676,282.0053555199786L191.89352019701644,277.63429106130997L193.45717068589576,285.5654413700003L194.23899593033548,291.97058848705433L200.02450273918907,288.6179840691011L200.6499629347408,292.0922331126012L200.80632798362876,301.08740363736126L200.96269303251668,272.40760702863315L203.77726391249954,293.96839273239493L205.65364449915475,277.7723671737337L205.81000954804267,287.41304190587266L206.74819984137028,286.6768827576775L207.84275518358587,273.786734681448L211.9082464546722,290.9900774611761L213.7846270413274,282.35563825961754L215.50464257909468,293.4416603057073L215.97373772575847,273.102251882211L216.44283287242231,284.90028970215155L219.570133850181,276.8256166261512L220.5083241435086,276.0040436963167L221.60287948572417,287.028706456461L222.54106977905178,283.94069488843326L225.04291056125876,286.76511863186215L225.51200570792258,285.5570714747608L227.23202124568985,289.1619044558745L227.70111639235364,283.3505051529896L228.17021153901746,282.7949132704867L228.32657658790538,275.68654434199027L235.8320989345263,274.34254488728106L236.3011940811901,281.1955756789522L236.7702892278539,273.89237438561634L236.92665427674183,282.8510877553166L240.36668535227642,289.8754040253406L242.24306593893164,291.7984320956948L242.5557960367075,266.58302072942985L243.18125623225927,293.02343399213134L243.806716427811,282.87349085183575L244.43217662336275,295.9382097426936L248.34130284556113,302.7480721547227L248.49766789444908,297.30748921081783L250.21768343221635,282.1340289559888L251.46860382331982,289.52584276163384L252.0940640188716,290.306303549039L252.40679411664746,296.0523374228169L255.06499994774234,294.79252524945514L257.41047568106137,306.2489023867421L258.0359358766131,286.8497040616238L261.9450620988115,291.6994591831281L264.44690288101845,294.09093507926565L264.6032679299064,286.65323888740045L266.94874366322546,294.1709120341539L267.5742038587772,306.7375242387808L270.07604464098415,301.8900678142502L270.2324096898721,296.541788754288L272.26515532541526,287.18523748031896L273.6724407654067,293.5630530606038L274.4542660098464,292.0196168882096L275.236091254286,291.11721506472026L275.70518640094986,302.54550320499925L276.4870116453895,305.95232170497206L276.95610679205333,306.6867771669537L278.83248737870855,285.6351151685964L280.083407769812,293.8041013726994L281.17796311202756,300.82761562405346L282.2725184542431,303.3722004048808L283.67980389423457,276.2160343523291L284.3052640897863,315.2776332842614L284.61799418756215,305.4503869295637L284.93072428533804,304.7165807561867L285.39981943200183,306.2898421734931L286.49437477421736,291.8235954655256L287.9016602142088,294.9510868493744L289.46531070308816,288.57726133636913L290.0907708986399,296.79181988656285L290.40350099641574,277.1457366422336L290.87259614307953,314.22552194134204L291.6544213875193,305.90987760048745L292.12351653418307,317.5660874744129L292.279881583071,302.00106458385414L292.4362466319589,310.6759483072001L295.4071825608297,292.86129128563323L296.81446800082114,296.0785005478183L297.7526582941487,311.0498604484881L298.84721363636424,288.14629259503596L299.0035786852522,315.24434714211156L300.4108641252437,298.0375010096454L301.5054194674592,301.42585936616285L304.78908549410585,293.79099584428917L305.4145456896576,289.43756663245057L306.9781961785369,315.1045549882559L307.60365637408864,311.32670502364635L309.0109418140801,301.96680958733174L311.04368744962323,311.70659649739093L311.512782596287,298.44691113977706L312.45097288961466,306.4219042903548L312.7637029873905,294.0949375524846L318.08011464958037,295.4484337491L319.01830494290795,313.7536700031618L321.6765107740028,300.44059507964926L321.9892408717787,306.8067175992094L323.24016126288217,306.5265303353997L323.70925640954596,287.2331705950259L324.02198650732186,309.0185545585224L326.8365573873047,308.59023620974864L329.02566807173577,319.2805551780301L329.33839816951166,305.4977025337157L332.1529690494945,298.1279921118106L332.77842924504625,318.664795336628L334.02934963614973,309.89757352900983L336.68755546724464,310.5103849951555L337.6257457605722,313.7260512512767L341.3785069338827,305.711652923489L343.2548875205379,301.3927735522209L343.4112525694258,293.8316961136029L343.88034771608966,296.1205318123479L344.0367127649776,291.51480967107454L344.34944286275345,321.1344196552054L344.66217296052935,315.48132706336713L345.2876331560811,301.6632883166838L345.9130933516328,298.90140640391974L347.00764869384835,306.2724698059564L349.3531244271674,303.6029048935801L354.6695360893572,296.96650583008613L355.29499628490896,319.2981754493094L355.6077263826848,316.52107399105876L356.3895516271245,277.92691900049914L357.79683706711586,309.95448268834093L359.6732176537712,324.3818236590526L361.2368681426505,299.5122369309613L361.5495982404264,320.2833022650883L361.86232833820225,311.71629661108767L362.01869338709014,302.0900478917253L362.6441535826419,318.9604956483489L363.1132487293057,319.68320684914045L364.3641691204092,310.5526153084476L364.98962931596094,303.2319847450941L367.178740000392,298.2307520388209L368.11693029371963,316.3420087613429L368.8987555381593,304.41812538332726L369.05512058704727,302.60544555075353L369.36785068482317,323.9100200993088L369.8369458314869,307.88887672103226L370.46240602703864,309.4647864219941L370.61877107592665,311.345708336281L371.7133264181421,309.2643445360684L372.18242156480596,300.11154857906723L372.9642468092457,322.4924995872622L375.9351827381164,314.6100336373234L377.4988332269958,303.6640350512155L378.4370235203234,305.52793210786194L379.37521381365104,316.17272379696925L380.0006740092027,297.7420537234344L381.87705459585794,312.77350690667447L382.03341964474595,302.27144627418545L385.94254586694433,313.86696133522054L387.3498313069357,328.0365730914486L390.0080371380306,306.7472588563913L392.8226080180134,288.87637706011816L392.9789730669014,319.17983468184764L393.29170316467724,305.83286347303715L394.8553536535566,306.33132088292183L395.48081384910836,316.82568203121014L398.4517497779791,305.1584255796071L400.1717653157464,288.8765425632513L401.4226857068499,306.2187462994346L402.36087600017754,315.16530577848135L402.51724104906543,311.64362774085384L402.8299711468413,321.0806456642957L403.1427012446172,326.03998797655646L403.92452648905686,335.519426001568L407.83365271125524,305.7672169374212L407.99001776014325,310.60970565564423L409.55366824902256,325.85711018452173L409.8663983467984,299.10760292476357L410.6482235912381,305.7609596828161L412.8373342756692,319.1056111122733L413.77552456899684,301.01002439022955L415.1828100089882,319.3033140949614L417.5282857423072,313.541264750198L418.15374593785896,294.1513575395826L418.46647603563486,314.9828414197063L420.499221671178,330.5062857926805L422.37560225783324,307.66215544214236L424.25198284448845,317.92535196533703L425.8156333333679,320.366723564861L426.75382362669546,328.07775176849094L429.4120294577903,319.9447956920064L430.350219751118,332.7347593366096L430.5065848000059,305.3987765061906L431.7575051911094,313.1693985765347L432.69569548443695,316.23268091424154L433.6338857777646,314.644893817972L434.4157110222043,308.2432724827627L438.0121071466268,300.5336857940004L439.1066624888424,292.0182530215968L439.88848773328203,311.64289939507904L441.9212333688252,304.79899394438905L443.01578871104067,331.3445819651498L445.36126444435973,316.02521848935567L447.23764503101495,317.5824463692967L447.7067401776788,331.4915957053994L449.89585086210985,298.81513061428905L450.05221591099786,318.56494057507217L450.3649460087737,314.2791408138977L455.3686275731876,322.3855092960722L455.52499262207556,315.30006788724285L455.68135767096345,309.4652006194631L456.77591301317904,316.67934759035944L458.49592855094636,323.1406485994677L460.8414042842653,315.9275445725631L461.62322952870505,316.83611460045944L466.3141809953431,295.18731516589685L468.34692663088623,323.1148637889818L469.7542120708777,336.7776373127161L471.16149751086914,319.9532355009824L472.0996878041967,334.39443601499283L472.72514799974846,331.1712223239456L475.3833538308434,322.04274666265684L475.69608392861926,312.4795669388964L475.85244897750715,313.9592050853171L477.72882956416237,309.04498842623366L480.5434004441453,318.4705908170382L483.2016062752402,324.5447952858623L484.45252666634366,318.290054575218L488.04892279076614,310.5579864444376L489.4562082307575,321.0538044100631L489.7689383285334,315.4592762742759L490.08166842630925,332.06041403000097L490.707128621861,328.00194626080366L490.863493670749,330.48540937276147L492.5835092085163,300.9729095225438L493.05260435518005,323.70609737166075L494.30352474628353,325.27593307731524L494.7726198929474,325.6328601227876L496.17990533293874,296.5782676765838L498.5253810662578,325.016255842392L499.15084126180955,330.7079830954602L499.4635713595854,338.78294545331545L501.80904709290445,332.6273210787764L503.8417927284476,317.63042352291L507.43818885287016,319.0531667047849L509.7836645861892,329.5105635370763L509.9400296350771,311.7965697818152L511.0345849772927,318.2178802518059L511.8164102217323,315.7991343654373L512.598235466172,296.85834379251025L513.2236956617237,336.28833494965875L513.5364257594996,319.6259257873032L516.0382665417065,305.792773701799L518.8528374216894,314.3988231643283L519.0092024705773,308.79667069942604L520.1037578127929,324.79312159603086L520.5728529594567,323.98415526001946L524.3256141327672,311.1967529989038L524.794709279431,301.94596309168725L525.8892646216465,334.2825379525388L526.3583597683103,318.5754439001106L526.5147248171983,316.1525028653834L526.8274549149742,331.2269894299276L526.9838199638621,340.2305721280281L530.8929461860604,309.79133630749004L532.3002316260519,344.9433364256274L536.0529927993623,301.7551317631262L537.3039131904658,333.6103948213014L539.493023874897,315.07219403697115L539.6493889237848,326.07762734150117L540.4312141682245,320.87023254588416L542.3075947548797,341.8298680256592L546.8421811726298,311.21668982601324L547.1549112704057,325.5475583359059L547.4676413681816,301.89999929966194L548.7185617592851,320.9346395362708L551.3767675903799,327.99483629924873L552.1585928348197,326.6596904871878L555.5986239103543,331.62508393218974L556.067719057018,325.46195343837655L556.8495443014577,324.6973670254928L558.569559839225,337.4398365919392L558.8822899370009,345.28782296870025L559.8204802303285,316.57703916269884L559.9768452792165,327.1732465924111L560.9150355725441,313.33056157266014L562.0095909147595,322.1840807430272L562.9477812080872,330.84907641182986L563.416876354751,305.32123114889396L566.075082185846,293.5609280145814L567.9514627725011,341.82997639713875L568.4205579191649,324.86898614821655L569.5151132613805,324.42926858926614L572.0169540435875,325.4254810722475L572.3296841413634,329.65743252755385L573.267874434691,325.88941394637254L573.8933346302427,320.53591557289184L576.3951754124497,342.2021992295963L579.0533812435445,323.6456999833886L582.1806822213033,311.7218800210311L584.9952531012862,325.4995885836552L585.307983199062,334.8008740775164L585.6207132968378,334.2061839407278L586.0898084435016,334.0204002537245L586.5589035901655,340.44366110881447L589.2171094212604,325.50088124388367L590.9371249590276,333.3837535070301L591.0934900079156,328.9807553338465L593.1262356434587,349.12229379102087L597.8171871100968,298.3761762249417L598.1299172078727,305.03035573902605L601.8826783811832,329.52413790467625L602.508138576735,326.8228130112872L602.8208686745107,322.95159207110476L603.7590589678384,319.72572348502746L604.2281541145021,320.97282771918367L604.540884212278,319.8524281087651L605.9481696522695,317.4650120592053L607.0427249944851,333.2208549545369L609.0754706300281,315.7021977451008L610.3263910211316,345.8253118258918L612.3591366566748,337.92067080461123L612.6718667544507,348.9569114777306L613.1409619011146,337.17266989831745L615.0173424877697,326.95823216092873L615.6428026833214,325.33983496259754L616.4246279277612,351.4842539743355L616.737358025537,328.6160685670172L618.3010085144164,301.44933007105925L618.9264687099682,316.8470365549087L623.4610551277183,343.2526460650324L624.2428803721579,317.6164927604993L625.3374357143734,325.809345441748L629.4029269854598,346.117113478382L630.6538473765632,331.54364403504815L632.2174978654426,320.2366710011893L633.4684182565461,324.771109734274L634.5629735987617,319.4707209361062L635.1884337943134,332.2078192378792L636.9084493320806,320.1085741470749L637.8466396254083,322.44061176420917L638.7848299187359,341.01194347406226L642.2248609942706,313.5276390382536L643.9448765320378,330.2579632008947L644.7267017764775,333.270458897114L646.133987216469,321.8192677173962L646.2903522653569,357.3825686308961L648.1667328520122,310.6710174859178L649.8867483897794,326.1126250123854L650.3558435364432,306.05817139573264L651.9194940253226,329.1398062754387L659.2686513230555,323.6754419036L660.0504765674953,345.2459859362287L660.2068416163831,337.65895410060523L661.7704921052625,334.2986934584154L673.1851406740817,335.9348462718307L674.9051562118491,321.278785818509L675.061521260737,327.0465251369899L675.3742513585129,334.48846841159286L675.6869814562888,354.0693600545316L676.1560766029526,324.1938674346641L676.3124416518405,308.8793506762014L680.2215678740389,308.0139126055004L681.0033931184785,349.46077708244025L681.4724882651424,330.5397720300433L682.7234086562459,333.4318358022655L684.4434241940131,318.81688352564333L685.8507096340045,331.3567786942024L686.3198047806684,336.70058292586253L686.4761698295563,328.58619086609616L688.8216455628753,341.14775126680547L691.3234863450823,344.6316161923098L692.2616766384099,315.89618652269326L692.8871368339617,330.09381168070826L694.294422273953,314.9974328086447L694.607152371729,323.2036755659702L696.0144378117203,343.19982047996973L696.6398980072721,332.7103411192069L697.5780883005997,307.42101266070966L698.3599135450394,326.3033212827912L702.4254048161257,320.73009121963173L703.8326902561171,295.63945466903465L706.1781659894361,330.7509438391182L707.2727213316517,346.0442446008509L708.2109116249793,331.5493525168787L708.836371820531,357.3741176208311L708.992736869419,342.9318085813563L711.9636727982897,315.16079593464366L712.4327679449536,315.67395929666156L713.3709582382811,316.87586748591275L718.0619097049192,330.0023853279109L719.0000999982469,334.70604286020557L719.6255601937987,338.0444579196502L720.0946553404624,323.9214232813828L721.3455757315659,336.41680986404305L721.6583058293417,343.81621248660076L724.3165116604366,334.8167508342545L724.4728767093246,339.031590631448L727.4438126381955,316.3486453124395L727.6001776870833,329.5825766092508L728.0692728337472,316.03569042750894L729.4765582737384,324.13913987005566L730.7274786648419,314.43465045983913L731.0402087626179,334.90841018089327L731.1965738115059,336.8580998454074L735.1057000337042,348.50943961222583L735.574795180368,333.45313320265814L737.2948107181353,340.9083450953712L737.7639058647992,338.6764900285167L738.076635962575,335.8937182596813L738.3893660603509,337.4111351520637L740.2657466470062,327.9186088409232L742.923952478101,319.5700280235464L746.2076185047476,347.40303082310095L747.3021738469632,341.56025727975225L748.5530942380667,338.51302385064724L749.1785544336184,312.9693591989493L750.2731097758339,331.018666997777L750.4294748247219,346.10505030339044L750.5858398736099,332.15122169061175L752.1494903624891,328.40657589855823L756.2149816335755,333.17807128329633L756.9968068780151,327.48682342031907L759.4986476602221,331.93276709593084L761.2186631979894,326.4069219303539L761.844123393541,345.2549719294119L762.0004884424291,329.52221065089515L763.2514088335325,329.5375454583927L763.7205039801964,351.57800922549063L763.8768690290843,351.88429269590637L764.1895991268602,314.0984381764864L764.658694273524,316.7850513583006L766.0659797135154,319.9080519500911L766.6914399090672,326.6168493587738L767.7859952512827,331.8750078559176L767.9423603001707,319.4075868030638L768.8805505934984,342.04866445527324L769.8187408868258,323.59301309680836L770.1314709846018,308.9242353339241L770.6005661312655,357.6299534651839L776.0733428423433,342.27531044494634L777.9497234289986,327.383255547355L780.9206593578693,306.7702744021903L781.2333894556452,353.43165289784895L783.7352302378522,318.2562518626679L784.204325384516,327.3295641603927L784.5170554822919,348.93572556467916L784.6734205311797,318.44724715194195L787.6443564600505,318.4507509403431L791.397117633361,308.99573621315164L791.8662127800247,322.7395919723624L793.8989584155679,351.96565402922755L795.1498788066714,317.52930980802785L796.5571642466629,334.0452038369983L797.0262593933267,358.4701262913242L797.3389894911026,359.6851643297918L797.4953545399903,331.0578348306573L799.6844652244215,322.8093051341176L800.935385615525,346.8303407104088L804.3754166910596,341.6055309582552L805.3136069843872,338.86417722888666L805.7827021310511,341.691637543224L806.8772574732666,329.733278453369L808.9100031088097,315.96815722835595L809.2227332065855,324.11871079649234L809.3790982554735,303.08623329426496L810.473653597689,327.51596720032563L813.2882244776719,351.56899908453374L816.8846206020945,293.7955968207716L817.6664458465341,326.9983194412785L817.8228108954221,325.8159558150253L820.793746824293,338.5622505994228L821.1064769220687,321.27787780857676L822.0446672153964,345.25508621718114L826.1101584864825,344.23262342582944L826.8919837309223,320.4068303615283L828.9247293664655,337.2862134394701L829.5501895620172,331.08235880413207L832.3647604420001,340.7342970750631L833.6156808331036,312.0629549167788L837.212076957526,336.9431040643619L837.68117210419,324.2742934108136L837.8375371530777,339.8274987651248L838.4629973486295,335.24631130974933L838.6193623975174,324.4029064655743L839.2448225930692,326.7046890126155L842.6848536686039,329.5463738174136L846.2812497930263,323.2915789731679L848.3139954285695,319.70091735632553L850.8158362107764,344.65891800759454L852.5358517485438,330.08608685037194L855.0376925307507,323.4691919214291L857.2268032151817,338.1023871110833L857.3831682640697,349.6504194959156L857.8522634107335,332.24797736225935L860.5104692418284,339.83425584911595L861.1359294373801,314.1192563582605L864.263230415139,335.34490200593854L864.5759605129148,366.77561549795814L866.765071197346,320.7141094886802L867.5468964417855,337.74136047925776L869.7360071262166,336.73954132304794L869.8923721751046,358.5306179899186L870.2051022728804,315.114938643852L870.98692751732,336.6194118769071L875.3651488861823,324.90508338898763L876.7724343261737,309.13297368365215L877.8669896683894,321.9047236725248L878.492449863941,341.1154379195846L879.4306401572686,346.87447165950977L880.3688304505963,339.26892470583044L881.1506556950359,356.57976180339676L881.6197508416998,339.9783303259934L881.9324809394756,346.68740180723375L884.2779566727946,323.6284668801524L885.685242112786,344.95577678295115L886.9361625038896,342.7913180511315L889.5943683349843,351.30805992285525L890.3761935794241,340.767474569705L890.6889236772,326.84117971093275L892.5653042638552,363.8672517254589L892.878034361631,336.530719728089L893.8162246549587,336.4361900309676L895.6926052416139,354.0023433142962L896.4744304860536,341.717658801305L898.0380809749329,354.78106283866083L899.6017314638123,332.34796043474864L903.9799528326745,356.6895699936698L904.2926829304504,318.4141669729584L904.9181431260022,343.42694570758357L907.2636188593211,301.52438275496377L913.6745858637264,328.5150641288614L914.1436810103903,332.9680227239081L914.7691412059421,318.33386777384186L916.958251890373,355.4575434227511L918.6782674281405,348.59920271803884L919.772822770356,348.51041393856394L922.4310286014509,326.30081116676666L922.9001237481147,337.7901670778206L923.6819489925543,328.02865358954506L924.4637742369941,331.1494431698046L925.4019645303216,341.5034034301649L927.2783451169769,330.4340316776541L927.4347101658648,325.8949679955302L930.0929159969597,342.53093523296957L930.5620111436235,349.8563314280561L931.6565664858391,319.65007239248166L935.8784228058133,329.25002978742964L936.1911529035892,339.9270909278912L937.2857082458048,349.40784610282003L940.1002791257877,334.42269386633023L940.4130092235634,351.07729405932986L941.5075645657789,343.40039459197624L942.9148500057704,322.6556103434415L944.4785004946498,324.87449677315016L944.6348655435378,346.33351222205494L946.198516032417,331.0218693853117L946.8239762279687,334.68931520966913L946.9803412768567,325.2918342128261L949.9512772057275,320.51132416164137L950.7331024501672,336.70459675472733L951.0458325479431,327.97451395885776L951.6712927434949,320.5658181917175L953.0785781834863,325.9054805779049L955.8931490634691,346.54052664956436L959.0204500412277,340.28258251554547L959.8022752856674,364.73684549115677L961.2095607256589,344.6787908968207L962.1477510189866,340.8781803885299L962.3041160678744,338.5178348482151L962.4604811167624,336.6308917398854L962.9295762634262,325.60379287652256L963.3986714100901,308.1852485411304L966.8387024856245,349.3556957572452L969.4969083167194,348.51393175887046L969.6532733656073,346.2202149563427L970.2787335611591,320.1601531437618L971.0605588055988,326.3567337250929L972.1551141478143,343.60280272753255L973.5623995878058,314.955187018387L973.8751296855816,320.22012187492726L975.4387801744609,319.29257889303017L976.3769704677886,362.09838334174873L976.6897005655644,305.0431164692875L977.6278908588921,345.1916275554832L977.9406209566679,348.0161319659377L978.2533510544439,323.82234782153625L980.129731641099,324.02129162492156L980.4424617388748,302.67745253374295L980.7551918366509,336.79291155657273L984.3515879610733,343.96048486201363L985.7588734010648,332.75275085066664L986.2279685477284,316.33640202284045L988.7298093299356,318.1707676664322L990.2934598188149,360.79177949779984L990.4498248677028,362.07912938003136L990.7625549654786,316.2912279790477L991.7007452588063,334.16401735760064L992.638935552134,339.0536473890587L993.7334908943494,312.6093801852975L994.5153161387892,337.59429686882464L995.6098714810047,337.67945490199634L996.5480617743324,350.33034406128286L998.5808074098754,339.3908502174908L1002.6462986809618,324.81235967578584L1005.7735996587204,352.7126614855056L1006.2426948053843,328.7822743786007L1006.8681550009361,336.2572017394667L1007.0245200498239,331.11331548457946L1008.1190753920396,331.83746498594996L1010.7772812231344,328.4268543118386L1012.4972967609017,329.41323323210554L1014.217312298669,325.4119208819862L1015.3118676408847,339.79272923594283L1016.2500579342121,331.2571540497362L1020.0028191075226,331.99479379038905L1027.3519764052555,346.8720414203796L1028.6028967963591,331.94037896254514L1029.2283569919107,336.315849342514L1031.261102627454,345.34852712498247L1032.9811181652212,322.3303274756447L1033.606578360773,352.4800357354129L1034.8574987518764,324.3280752285213L1035.0138638007643,329.9926351397487L1035.639323996316,345.23774085621403L1037.0466094363076,313.54241935469855L1037.2029744851955,326.27283895504115L1038.7666249740748,331.87736356476427L1038.9229900229627,366.84786449654035L1039.0793550718508,339.0403840255377L1040.3302754629542,350.1284739894603L1043.457576440713,312.92441558033244L1047.2103376140233,339.93566399897986L1047.835797809575,329.6252605380046L1048.148527907351,321.9521844420484L1048.304892956239,326.73282228831766L1048.7739881029026,320.32112260699347L1050.3376385917823,352.48627369375833L1051.7449240317735,339.5353996945903L1052.2140191784374,298.4199315315573L1053.7776696673166,345.15525794204L1054.5594949117562,341.6769436763258L1060.188636671722,351.4486640404686L1061.5959221117134,356.53907982425L1061.9086522094894,352.559229272284L1062.534112405041,353.44445166687694L1063.4723026983686,331.68031960654264L1063.9413978450325,342.7878502337854L1065.035953187248,338.92512198918104L1066.2868735783516,365.1284100014165L1066.7559687250152,330.7337282558522L1068.0068891161188,342.7182265537772L1068.6323493116704,327.8121839154718L1069.2578095072222,335.7775735586185L1070.8214599961016,335.7672778222223L1070.9778250449897,328.1276159451944L1072.8542056316448,346.4873832203429L1073.4796658271966,328.2610301793928L1074.574221169412,335.41824964830596L1075.1996813649637,338.3209913307115L1076.9196969027312,333.4455258224376L1078.7960774893863,353.50983059930263L1081.2979182715933,354.26862945068444L1085.2070444937917,333.1862307148139L1087.5525202271108,352.57557564323L1089.7416309115417,325.48644210849403L1090.3670911070935,350.27801429581126L1090.9925513026453,322.6076076590471L1092.2434716937487,341.2076078874699L1093.1816619870763,342.23456870612364L1093.3380270359644,338.0033805324561L1095.9962328670592,348.7661582521688L1097.4035183070507,331.5575903488656L1098.3417086003783,327.675184456985L1099.592628991482,335.29282546680025L1100.0617241381456,339.1733486629051L1103.50175521368,341.9273562055407L1106.159961044775,346.818217237546L1106.7854212403267,344.13725625537745L1108.0363416314303,347.4808967064507L1108.505436778094,338.61344119836514L1109.4436270714216,346.24591991579285L1112.2581979514046,348.7687880350276L1112.5709280491803,372.3261610593657L1115.385498929163,337.7779325032578L1116.0109591247149,329.83875492366207L1116.4800542713788,331.523916226311L1118.8255300046978,351.8213608641103L1119.2946251513615,341.77049075948844L1119.9200853469133,353.63680739677216L1121.014640689129,329.01134484242175L1123.047386324672,335.8195211530149L1123.9855766179996,328.0506694501222L1126.1746873024308,355.1192846492177L1128.051067889086,314.7560771911462L1129.1456232313014,329.27102602003816L1130.396543622405,307.0921804928065L1131.6474640135084,318.9833018247119L1131.8038290623965,358.7602165031217L1132.5856543068362,348.6086560761341L1133.211114502388,343.7752845325469L1135.243860137931,340.6708278794982L1135.8693203334828,329.8884610291565L1138.0584310179138,333.3010410578696L1139.934811604569,328.8881219901499L1140.091176653457,331.6187407786706L1141.1857319956725,350.742658864117L1142.4366523867761,339.07379347650226L1143.3748426801037,320.10436834699226L1144.3130329734313,337.7478808803941L1145.4075883156468,321.98509914739236L1145.7203184134225,319.8443664335017L1147.127603853414,319.35787414330656L1147.44033395119,343.7131073432497L1147.596699000078,309.2288509602352L1150.5676349289488,315.45032171658494L1151.0367300756125,341.8731227242768L1152.444015515604,322.4924531119476L1154.476761151147,338.26698849846105L1156.1967766889143,340.649649897687L1156.6658718355782,338.418415573797L1158.2295223244575,330.5714365241753L1160.7313631066645,340.66290142461685L1162.4513786444318,343.12587448861353L1165.2659495244145,329.5559011292369L1166.829600013294,338.34911750279355L1166.985965062182,334.7434251414763L1167.7677903066215,344.9383441952788L1167.9241553555096,338.94487341488343L1169.018710697725,356.85469875524615L1169.6441708932769,331.820581734636L1169.8005359421647,343.78944172281916L1169.9569009910526,355.8224227728901L1173.3969320665874,339.6290947460443L1173.5532971154753,339.4190572818418L1174.178757311027,339.58350260476834L1174.4914874088029,350.29936002026744L1175.8987728487944,350.2733324499718L1176.524233044346,340.3428164939226L1176.9933281910098,331.37116468795716L1181.0588194620962,321.9773446153369L1181.215184510984,316.2078344395526L1182.6224699509755,346.170171924876L1183.0915650976392,339.52269718212034L1183.717025293191,324.9295017091027L1184.186120439855,346.350225129171L1185.7497709287343,335.0455255122921L1185.906135977622,323.2225730357552L1186.06250102651,343.2489201009131L1186.218866075398,357.43571050757873L1187.0006913198376,343.5159500801974L1187.9388816131652,335.4253189232612L1188.564341808717,338.7455486025884L1188.8770719064928,357.8947421380761L1191.3789126886998,348.05571748216477L1192.3171029820276,347.3799498785333L1192.4734680309152,339.1156466534209L1193.7243884220188,323.76325050897043L1194.6625787153464,352.6226974141989L1196.6953243508897,346.1432713211959L1197.7898796931051,343.0832306586213L1199.3535301819845,312.6902518342902L1203.4190214530709,317.36057951629954L1207.0154175774935,335.0155923823038L1208.109972919709,330.40040926345694L1209.0481632130366,355.72899034994464L1209.5172583597005,323.5761335137346L1214.3645748752265,336.60153850823934L1214.5209399241141,347.82710030210154L1217.022780706321,338.82948795483065L1217.1791457552092,334.18103466607295L1218.7427962440886,330.054773932907L1219.2118913907523,374.6261582955025L1219.5246214885283,357.9339239247623L1221.2446370262955,352.84346180927196L1222.1828273196231,328.02553670369286L1222.651922466287,348.3566528144277L1223.2773826618386,351.27196618919595L1225.7792234440456,323.71999656697153L1226.0919535418213,333.59836638463787L1226.2483185907095,338.58431538874424L1226.8737787862613,341.92979544360514L1227.3428739329252,322.6543862266049L1227.655604030701,314.3746513686158L1229.844714715132,336.39734639996925L1230.4701749106837,324.9138783579359L1232.190190448451,357.8099956941252L1232.6592855951149,349.27313163814415L1235.7865865728736,347.5923426041691L1237.037506963977,333.88312237533535L1238.6011574528563,312.0630627264492L1238.7575225017442,332.7703360689366L1240.4775380395115,363.98804868209027L1244.0739341639342,351.26744929028723L1244.8557594083738,318.2882179620477L1247.5139652394687,341.92894427041944L1251.1103613638911,307.23056642969476L1251.423091461667,345.8528206726381L1254.3940273905378,323.97565055872593L1254.5503924394259,343.1313626406082L1255.1758526349777,339.6407431621312L1255.8013128305292,336.5183280055582L1258.615883710512,338.7219229808207L1259.5540740038398,342.01444905933926L1259.7104390527277,344.7265132385621L1266.277771106021,326.1164999178976L1267.5286914971246,323.3712028712418L1268.779611888228,329.04721077781943L1268.9359769371158,357.4626177613138L1271.5941827682107,343.3861414720663L1272.8451031593142,325.2909340437753L1273.626928403754,352.61316916104994L1274.2523885993055,344.01713019469975L1275.972404137073,356.716454853844L1277.8487847237282,335.5084630263222L1278.317879870392,344.8225898739675L1278.6306099681678,349.4212817171619L1279.2560701637196,336.8364756941374L1280.506990554823,326.0537479755272L1286.6052274614524,340.9061185180561L1289.888893488099,351.97591487825645L1290.8270837814266,332.7469397160909L1290.9834488303147,325.65969487701284L1291.2961789280905,328.7376824874563L1293.6416546614093,347.80406097776364L1294.736210003625,332.8481422005666L1298.3326061280475,340.1636004813915L1298.6453362258235,334.08620020178097L1298.9580663235993,358.58119444010305L1300.6780818613668,319.1850080483986L1301.1471770080304,350.5151716110105L1303.8053828391253,322.6049750453586L1304.7435731324529,326.80301953475987L1306.7763187679961,345.4196481451173L1309.9036197457547,338.9736606972618L1311.3109051857462,351.61436778991316L1313.5000158701773,332.40958501159673L1313.812745967953,340.8895115780683L1314.1254760657291,347.6341650550849L1315.5327615057206,320.95159185050017L1316.9400469457119,346.4503669775254L1318.1909673368154,326.5565199816695L1321.3182683145742,331.2721278751594L1321.63099841235,347.82847127951317L1322.1000935590139,347.14898693743976L1322.4128236567897,332.02082323851516L1323.3510139501172,336.84686451735644L1325.2273945367724,323.94642663710476L1325.3837595856603,344.6128953351917L1326.478314927876,338.21849364402976L1326.9474100745397,326.164005440154L1327.7292353189794,337.2647002190099L1328.8237906611948,345.46922009425856L1329.1365207589708,363.7218165493965L1333.8274722256087,341.21982205683867L1337.1111382522554,341.33144427840955L1338.8311537900229,349.8190205961814L1339.3002489366866,337.14533357051323L1340.0820741811262,367.01008079175585L1341.3329945722298,318.6235775432453L1342.5839149633332,329.79246084913024L1343.209375158885,338.8664977744708L1343.3657402077731,333.58961254033267L1343.678470305549,345.58811400256536L1344.1475654522128,346.4162871978928L1345.2421207944283,329.84984108875466L1345.8675809899798,344.25474013036677L1346.4930411855316,344.93206554820944L1347.9003266255231,341.35308535954834L1348.056691674411,342.28600540027907L1348.8385169188507,340.5594260466266L1349.4639771144025,352.6487404013663L1349.6203421632904,352.30487945766345L1351.9658178966095,345.45145499205347L1356.0313091676958,362.0063443887413" fill="none"></path></g></g></g></g></g></g><g transform="translate(40, 375)" clip-path="url(#clip_1)"><clipPath id="clip_1"><rect width="1406" height="25"></rect></clipPath><g><g><line x1="18.32831593140808" y1="0" x2="18.32831593140808" y2="5" style="visibility: inherit;" fill="rgb(0, 0, 0)" stroke="rgb(204, 204, 204)" stroke-width="1px"></line><line x1="174.69336481934354" y1="0" x2="174.69336481934354" y2="5" style="visibility: inherit;" fill="rgb(0, 0, 0)" stroke="rgb(204, 204, 204)" stroke-width="1px"></line><line x1="331.058413707279" y1="0" x2="331.058413707279" y2="5" style="visibility: inherit;" fill="rgb(0, 0, 0)" stroke="rgb(204, 204, 204)" stroke-width="1px"></line><line x1="487.42346259521435" y1="0" x2="487.42346259521435" y2="5" style="visibility: inherit;" fill="rgb(0, 0, 0)" stroke="rgb(204, 204, 204)" stroke-width="1px"></line><line x1="643.7885114831499" y1="0" x2="643.7885114831499" y2="5" style="visibility: inherit;" fill="rgb(0, 0, 0)" stroke="rgb(204, 204, 204)" stroke-width="1px"></line><line x1="800.1535603710853" y1="0" x2="800.1535603710853" y2="5" style="visibility: inherit;" fill="rgb(0, 0, 0)" stroke="rgb(204, 204, 204)" stroke-width="1px"></line><line x1="956.5186092590208" y1="0" x2="956.5186092590208" y2="5" style="visibility: inherit;" fill="rgb(0, 0, 0)" stroke="rgb(204, 204, 204)" stroke-width="1px"></line><line x1="1112.8836581469563" y1="0" x2="1112.8836581469563" y2="5" style="visibility: inherit;" fill="rgb(0, 0, 0)" stroke="rgb(204, 204, 204)" stroke-width="1px"></line><line x1="1269.2487070348918" y1="0" x2="1269.2487070348918" y2="5" style="visibility: inherit;" fill="rgb(0, 0, 0)" stroke="rgb(204, 204, 204)" stroke-width="1px"></line></g><g transform="translate(0, 8)"><text x="18.32831593140808" y="0" dx="0em" dy="0.95em" style="text-anchor: middle; visibility: inherit; font-family: &quot;Helvetica Neue&quot;, sans-serif; font-size: 12px; font-weight: 200;" fill="rgb(50, 49, 63)" stroke="none" stroke-width="1px">0</text><text x="174.69336481934354" y="0" dx="0em" dy="0.95em" style="text-anchor: middle; visibility: inherit; font-family: &quot;Helvetica Neue&quot;, sans-serif; font-size: 12px; font-weight: 200;" fill="rgb(50, 49, 63)" stroke="none" stroke-width="1px">1k</text><text x="331.058413707279" y="0" dx="0em" dy="0.95em" style="text-anchor: middle; visibility: inherit; font-family: &quot;Helvetica Neue&quot;, sans-serif; font-size: 12px; font-weight: 200;" fill="rgb(50, 49, 63)" stroke="none" stroke-width="1px">2k</text><text x="487.42346259521435" y="0" dx="0em" dy="0.95em" style="text-anchor: middle; visibility: inherit; font-family: &quot;Helvetica Neue&quot;, sans-serif; font-size: 12px; font-weight: 200;" fill="rgb(50, 49, 63)" stroke="none" stroke-width="1px">3k</text><text x="643.7885114831499" y="0" dx="0em" dy="0.95em" style="text-anchor: middle; visibility: inherit; font-family: &quot;Helvetica Neue&quot;, sans-serif; font-size: 12px; font-weight: 200;" fill="rgb(50, 49, 63)" stroke="none" stroke-width="1px">4k</text><text x="800.1535603710853" y="0" dx="0em" dy="0.95em" style="text-anchor: middle; visibility: inherit; font-family: &quot;Helvetica Neue&quot;, sans-serif; font-size: 12px; font-weight: 200;" fill="rgb(50, 49, 63)" stroke="none" stroke-width="1px">5k</text><text x="956.5186092590208" y="0" dx="0em" dy="0.95em" style="text-anchor: middle; visibility: inherit; font-family: &quot;Helvetica Neue&quot;, sans-serif; font-size: 12px; font-weight: 200;" fill="rgb(50, 49, 63)" stroke="none" stroke-width="1px">6k</text><text x="1112.8836581469563" y="0" dx="0em" dy="0.95em" style="text-anchor: middle; visibility: inherit; font-family: &quot;Helvetica Neue&quot;, sans-serif; font-size: 12px; font-weight: 200;" fill="rgb(50, 49, 63)" stroke="none" stroke-width="1px">7k</text><text x="1269.2487070348918" y="0" dx="0em" dy="0.95em" style="text-anchor: middle; visibility: inherit; font-family: &quot;Helvetica Neue&quot;, sans-serif; font-size: 12px; font-weight: 200;" fill="rgb(50, 49, 63)" stroke="none" stroke-width="1px">8k</text></g><line x1="0" y1="0" x2="1406" y2="0" fill="rgb(0, 0, 0)" stroke="rgb(204, 204, 204)" stroke-width="1px"></line></g></g></g></g></svg>