<svg viewBox="0 0 827.25 400" xmlns="http://www.w3.org/2000/svg"><g><g><g><g><g><line x1="40" y1="360.3110933402981" x2="35" y2="360.3110933402981" style="visibility: inherit;" fill="rgb(0, 0, 0)" stroke="rgb(204, 204, 204)" stroke-width="1px"></line><line x1="40" y1="338.44131758701997" x2="35" y2="338.44131758701997" style="visibility: inherit;" fill="rgb(0, 0, 0)" stroke="rgb(204, 204, 204)" stroke-width="1px"></line><line x1="40" y1="319.9506856545194" x2="35" y2="319.9506856545194" style="visibility: inherit;" fill="rgb(0, 0, 0)" stroke="rgb(204, 204, 204)" stroke-width="1px"></line><line x1="40" y1="303.933371717136" x2="35" y2="303.933371717136" style="visibility: inherit;" fill="rgb(0, 0, 0)" stroke="rgb(204, 204, 204)" stroke-width="1px"></line><line x1="40" y1="289.80509954438065" x2="35" y2="289.80509954438065" style="visibility: inherit;" fill="rgb(0, 0, 0)" stroke="rgb(204, 204, 204)" stroke-width="1px"></line><line x1="40" y1="277.16692942777485" x2="35" y2="277.16692942777485" style="visibility: inherit;" fill="rgb(0, 0, 0)" stroke="rgb(204, 204, 204)" stroke-width="1px"></line><line x1="40" y1="194.0227655152516" x2="35" y2="194.0227655152516" style="visibility: inherit;" fill="rgb(0, 0, 0)" stroke="rgb(204, 204, 204)" stroke-width="1px"></line><line x1="40" y1="145.38654747261225" x2="35" y2="145.38654747261225" style="visibility: inherit;" fill="rgb(0, 0, 0)" stroke="rgb(204, 204, 204)" stroke-width="1px"></line><line x1="40" y1="110.87860160272834" x2="35" y2="110.87860160272834" style="visibility: inherit;" fill="rgb(0, 0, 0)" stroke="rgb(204, 204, 204)" stroke-width="1px"></line><line x1="40" y1="84.1121593133671" x2="35" y2="84.1121593133671" style="visibility: inherit;" fill="rgb(0, 0, 0)" stroke="rgb(204, 204, 204)" stroke-width="1px"></line><line x1="40" y1="62.242383560089024" x2="35" y2="62.242383560089024" style="visibility: inherit;" fill="rgb(0, 0, 0)" stroke="rgb(204, 204, 204)" stroke-width="1px"></line><line x1="40" y1="43.75175162758842" x2="35" y2="43.75175162758842" style="visibility: inherit;" fill="rgb(0, 0, 0)" stroke="rgb(204, 204, 204)" stroke-width="1px"></line><line x1="40" y1="27.73443769020514" x2="35" y2="27.73443769020514" style="visibility: inherit;" fill="rgb(0, 0, 0)" stroke="rgb(204, 204, 204)" stroke-width="1px"></line><line x1="40" y1="13.60616551744971" x2="35" y2="13.60616551744971" style="visibility: inherit;" fill="rgb(0, 0, 0)" stroke="rgb(204, 204, 204)" stroke-width="1px"></line><line x1="40" y1="0.9679954008438472" x2="35" y2="0.9679954008438472" style="visibility: inherit;" fill="rgb(0, 0, 0)" stroke="rgb(204, 204, 204)" stroke-width="1px"></line></g><g transform="translate(30, 0)"><text x="0" y="360.3110933402981" dx="0em" dy="0.3em" style="text-anchor: end; visibility: inherit; font-family: &quot;Helvetica Neue&quot;, sans-serif; font-size: 12px; font-weight: 200;" fill="rgb(50, 49, 63)" stroke="none" stroke-width="1px">0.5</text><text x="0" y="338.44131758701997" dx="0em" dy="0.3em" style="text-anchor: end; visibility: hidden; font-family: &quot;Helvetica Neue&quot;, sans-serif; font-size: 12px; font-weight: 200;" fill="rgb(50, 49, 63)" stroke="none" stroke-width="1px">0.6</text><text x="0" y="319.9506856545194" dx="0em" dy="0.3em" style="text-anchor: end; visibility: inherit; font-family: &quot;Helvetica Neue&quot;, sans-serif; font-size: 12px; font-weight: 200;" fill="rgb(50, 49, 63)" stroke="none" stroke-width="1px">0.7</text><text x="0" y="303.933371717136" dx="0em" dy="0.3em" style="text-anchor: end; visibility: hidden; font-family: &quot;Helvetica Neue&quot;, sans-serif; font-size: 12px; font-weight: 200;" fill="rgb(50, 49, 63)" stroke="none" stroke-width="1px">0.8</text><text x="0" y="289.80509954438065" dx="0em" dy="0.3em" style="text-anchor: end; visibility: inherit; font-family: &quot;Helvetica Neue&quot;, sans-serif; font-size: 12px; font-weight: 200;" fill="rgb(50, 49, 63)" stroke="none" stroke-width="1px">0.9</text><text x="0" y="277.16692942777485" dx="0em" dy="0.3em" style="text-anchor: end; visibility: hidden; font-family: &quot;Helvetica Neue&quot;, sans-serif; font-size: 12px; font-weight: 200;" fill="rgb(50, 49, 63)" stroke="none" stroke-width="1px">1</text><text x="0" y="194.0227655152516" dx="0em" dy="0.3em" style="text-anchor: end; visibility: inherit; font-family: &quot;Helvetica Neue&quot;, sans-serif; font-size: 12px; font-weight: 200;" fill="rgb(50, 49, 63)" stroke="none" stroke-width="1px">2</text><text x="0" y="145.38654747261225" dx="0em" dy="0.3em" style="text-anchor: end; visibility: hidden; font-family: &quot;Helvetica Neue&quot;, sans-serif; font-size: 12px; font-weight: 200;" fill="rgb(50, 49, 63)" stroke="none" stroke-width="1px">3</text><text x="0" y="110.87860160272834" dx="0em" dy="0.3em" style="text-anchor: end; visibility: inherit; font-family: &quot;Helvetica Neue&quot;, sans-serif; font-size: 12px; font-weight: 200;" fill="rgb(50, 49, 63)" stroke="none" stroke-width="1px">4</text><text x="0" y="84.1121593133671" dx="0em" dy="0.3em" style="text-anchor: end; visibility: hidden; font-family: &quot;Helvetica Neue&quot;, sans-serif; font-size: 12px; font-weight: 200;" fill="rgb(50, 49, 63)" stroke="none" stroke-width="1px">5</text><text x="0" y="62.242383560089024" dx="0em" dy="0.3em" style="text-anchor: end; visibility: inherit; font-family: &quot;Helvetica Neue&quot;, sans-serif; font-size: 12px; font-weight: 200;" fill="rgb(50, 49, 63)" stroke="none" stroke-width="1px">6</text><text x="0" y="43.75175162758842" dx="0em" dy="0.3em" style="text-anchor: end; visibility: hidden; font-family: &quot;Helvetica Neue&quot;, sans-serif; font-size: 12px; font-weight: 200;" fill="rgb(50, 49, 63)" stroke="none" stroke-width="1px">7</text><text x="0" y="27.73443769020514" dx="0em" dy="0.3em" style="text-anchor: end; visibility: inherit; font-family: &quot;Helvetica Neue&quot;, sans-serif; font-size: 12px; font-weight: 200;" fill="rgb(50, 49, 63)" stroke="none" stroke-width="1px">8</text><text x="0" y="13.60616551744971" dx="0em" dy="0.3em" style="text-anchor: end; visibility: hidden; font-family: &quot;Helvetica Neue&quot;, sans-serif; font-size: 12px; font-weight: 200;" fill="rgb(50, 49, 63)" stroke="none" stroke-width="1px">9</text><text x="0" y="0.9679954008438472" dx="0em" dy="0.3em" style="text-anchor: end; visibility: hidden; font-family: &quot;Helvetica Neue&quot;, sans-serif; font-size: 12px; font-weight: 200;" fill="rgb(50, 49, 63)" stroke="none" stroke-width="1px">10</text></g><line x1="40" y1="0" x2="40" y2="375" fill="rgb(0, 0, 0)" stroke="rgb(204, 204, 204)" stroke-width="1px"></line></g></g><g transform="translate(40, 0)" clip-path="url(#clip_0)"><clipPath id="clip_0"><rect width="787" height="375"></rect></clipPath><g><g><g><line x1="38.342513199053286" y1="0" x2="38.342513199053286" y2="375" fill="rgb(0, 0, 0)" stroke="rgb(60, 60, 60)" stroke-width="1px" opacity="0.25"></line><line x1="119.61808790497147" y1="0" x2="119.61808790497147" y2="375" fill="rgb(0, 0, 0)" stroke="rgb(60, 60, 60)" stroke-width="1px" opacity="0.25"></line><line x1="200.89366261088963" y1="0" x2="200.89366261088963" y2="375" fill="rgb(0, 0, 0)" stroke="rgb(60, 60, 60)" stroke-width="1px" opacity="0.25"></line><line x1="282.1692373168078" y1="0" x2="282.1692373168078" y2="375" fill="rgb(0, 0, 0)" stroke="rgb(60, 60, 60)" stroke-width="1px" opacity="0.25"></line><line x1="363.444812022726" y1="0" x2="363.444812022726" y2="375" fill="rgb(0, 0, 0)" stroke="rgb(60, 60, 60)" stroke-width="1px" opacity="0.25"></line><line x1="444.7203867286442" y1="0" x2="444.7203867286442" y2="375" fill="rgb(0, 0, 0)" stroke="rgb(60, 60, 60)" stroke-width="1px" opacity="0.25"></line><line x1="525.9959614345623" y1="0" x2="525.9959614345623" y2="375" fill="rgb(0, 0, 0)" stroke="rgb(60, 60, 60)" stroke-width="1px" opacity="0.25"></line><line x1="607.2715361404806" y1="0" x2="607.2715361404806" y2="375" fill="rgb(0, 0, 0)" stroke="rgb(60, 60, 60)" stroke-width="1px" opacity="0.25"></line><line x1="688.5471108463987" y1="0" x2="688.5471108463987" y2="375" fill="rgb(0, 0, 0)" stroke="rgb(60, 60, 60)" stroke-width="1px" opacity="0.25"></line><line x1="769.8226855523169" y1="0" x2="769.8226855523169" y2="375" fill="rgb(0, 0, 0)" stroke="rgb(60, 60, 60)" stroke-width="1px" opacity="0.25"></line></g><g><line x1="0" y1="360.3110933402981" x2="787.25" y2="360.3110933402981" fill="rgb(0, 0, 0)" stroke="rgb(60, 60, 60)" stroke-width="1px" opacity="0.25"></line><line x1="0" y1="338.44131758701997" x2="787.25" y2="338.44131758701997" fill="rgb(0, 0, 0)" stroke="rgb(60, 60, 60)" stroke-width="1px" opacity="0.25"></line><line x1="0" y1="319.9506856545194" x2="787.25" y2="319.9506856545194" fill="rgb(0, 0, 0)" stroke="rgb(60, 60, 60)" stroke-width="1px" opacity="0.25"></line><line x1="0" y1="303.933371717136" x2="787.25" y2="303.933371717136" fill="rgb(0, 0, 0)" stroke="rgb(60, 60, 60)" stroke-width="1px" opacity="0.25"></line><line x1="0" y1="289.80509954438065" x2="787.25" y2="289.80509954438065" fill="rgb(0, 0, 0)" stroke="rgb(60, 60, 60)" stroke-width="1px" opacity="0.25"></line><line x1="0" y1="277.16692942777485" x2="787.25" y2="277.16692942777485" fill="rgb(0, 0, 0)" stroke="rgb(60, 60, 60)" stroke-width="1px" opacity="0.25"></line><line x1="0" y1="194.0227655152516" x2="787.25" y2="194.0227655152516" fill="rgb(0, 0, 0)" stroke="rgb(60, 60, 60)" stroke-width="1px" opacity="0.25"></line><line x1="0" y1="145.38654747261225" x2="787.25" y2="145.38654747261225" fill="rgb(0, 0, 0)" stroke="rgb(60, 60, 60)" stroke-width="1px" opacity="0.25"></line><line x1="0" y1="110.87860160272834" x2="787.25" y2="110.87860160272834" fill="rgb(0, 0, 0)" stroke="rgb(60, 60, 60)" stroke-width="1px" opacity="0.25"></line><line x1="0" y1="84.1121593133671" x2="787.25" y2="84.1121593133671" fill="rgb(0, 0, 0)" stroke="rgb(60, 60, 60)" stroke-width="1px" opacity="0.25"></line><line x1="0" y1="62.242383560089024" x2="787.25" y2="62.242383560089024" fill="rgb(0, 0, 0)" stroke="rgb(60, 60, 60)" stroke-width="1px" opacity="0.25"></line><line x1="0" y1="43.75175162758842" x2="787.25" y2="43.75175162758842" fill="rgb(0, 0, 0)" stroke="rgb(60, 60, 60)" stroke-width="1px" opacity="0.25"></line><line x1="0" y1="27.73443769020514" x2="787.25" y2="27.73443769020514" fill="rgb(0, 0, 0)" stroke="rgb(60, 60, 60)" stroke-width="1px" opacity="0.25"></line><line x1="0" y1="13.60616551744971" x2="787.25" y2="13.60616551744971" fill="rgb(0, 0, 0)" stroke="rgb(60, 60, 60)" stroke-width="1px" opacity="0.25"></line><line x1="0" y1="0.9679954008438472" x2="787.25" y2="0.9679954008438472" fill="rgb(0, 0, 0)" stroke="rgb(60, 60, 60)" stroke-width="1px" opacity="0.25"></line></g></g></g><g><g><line x1="200.89366261088963" y1="0" x2="200.89366261088963" y2="375" fill="rgb(0, 0, 0)" stroke="rgb(153, 153, 153)" stroke-width="1.5px"></line></g></g><g><g><g><g><g><path stroke="rgb(255, 112, 67)" stroke-width="2px" d="M211.05310944912944,-5.423460721788899L211.2969361732472,5.643701319698948L211.50012511001196,15.305782247277193L211.78458962148267,26.999309737101157L212.02841634560042,33.231008967930336L212.80053430530666,40.861447813014365L213.45073890295401,46.393347782593025L213.53201447765994,54.63635931267078L213.8571167764836,64.11956674357856L214.3447702247191,71.26009821851397L214.71051031089576,72.88299008612216L215.0356126097194,77.48142873675238L215.68581720736677,86.04766589952698L215.8483683567786,89.006789596938L218.2459978106032,96.25660880469735L218.28663559795615,102.19185152888537L218.97747798295643,101.1429542426659L219.0993913450153,100.52450446564728L219.2213047070742,104.06387955040003L219.83087151736856,106.30499586066315L219.95278487942744,109.6836713621459L219.99342266678042,111.28712969119124L220.39980054031003,101.14797217617661L221.0906429253103,107.608215252386L221.17191850001623,107.67811132629879L222.02531203442837,102.9227299860139L222.7161544194287,102.03315183881466L222.91934335619348,102.07173935625889L224.0165636147234,106.28891973574349L224.42294148825297,107.57720475130344L224.6667682123707,114.00956070718394L224.74804378707663,112.64761904182575L224.9512327238414,113.68440988310874L224.99187051119438,111.4064880346441L225.60143732148876,116.72264908194137L226.33291749384205,117.6600787074704L226.41419306854797,117.98585670551529L226.90184651678345,114.36024039252555L227.18631102825415,114.3280196281267L227.22694881560713,113.62667636972753L227.30822439031303,105.87968987439973L227.43013775237196,107.98693701660403L227.51141332707786,111.88036675007316L227.99906677531337,108.62475017030499L228.40544464884294,111.63655747112193L228.89309809707848,117.44193408110499L229.09628703384325,117.87481205497073L230.1528695050202,121.11071764454462L230.31542065443202,124.50252094837683L230.47797180384387,124.48293642972644L230.51860959119682,120.47380569145878L230.80307410266752,105.56969585467925L231.16881418884418,110.5424790164476L231.331365338256,109.18028162881842L231.49391648766783,113.28681493424506L231.69710542443264,113.8258639681224L231.85965657384446,114.09892297282045L232.22539666002112,110.31940113660903L232.38794780943294,111.3726946427613L232.46922338413887,107.24711623596L232.55049895884477,105.69549476495871L232.8349634703155,102.40693297947524L233.03815240708028,100.41004437543006L233.1194279817862,107.30700595951669L233.32261691855098,106.19923131329011L233.40389249325693,102.0880625877441L233.56644364266876,104.9151813408655L233.72899479208058,109.94656544337033L233.97282151619834,119.26437463911375L234.01345930355131,123.62083247421478L234.94812841266938,124.00545439136735L235.1106795620812,122.9552395374979L236.45172654472884,121.14401566425019L236.73619105619954,120.03873174707522L236.98001778031733,125.1006321391568L237.54894680325873,125.22828143802283L237.71149795267058,127.92989201632352L237.9959624641413,127.42341849717738L238.07723803884724,125.73761922884023L238.321064762965,127.88212805515329L238.4023403376709,131.3387836711802L238.9712693606123,128.90077271159214L239.01190714796525,130.38127647285586L239.41828502149488,127.77324988939347L239.54019838355376,124.41094252743133L239.90593846973036,128.2224196737771L240.0684896191422,126.73628815377631L240.23104076855404,120.72046369335712L240.5967808547307,121.48977333654437L240.63741864208365,118.85811411514862L240.8812453662014,123.62863172516529L240.92188315355435,131.84145332515936L241.12507209031915,134.47251475448468L241.61272553855463,127.50785251174875L241.8565522626724,134.06275909468056L241.97846562473129,133.05186053068053L242.34420571090791,132.12687889851045L243.56333933149668,123.85345640440113L244.0916305670852,120.77089605216207L244.3354572912029,126.44832133128932L244.4573706532618,125.9301604837427L244.53864622796772,124.96587184096899L244.70119737737954,127.1917631543422L244.9450241014973,133.47578424643783L245.14821303826207,135.92951417485784L245.5545909117917,124.90158243234976L245.79841763590943,126.43566801851912L246.00160657267423,125.07425903174914L246.40798444620384,128.45100443756493L246.61117338296864,134.16021348381818L248.1147715150281,136.57415076097467L248.27732266443994,140.13255432357337L248.31796045179289,147.2255906113496L248.35859823914586,135.61424309111422L249.09007841149912,140.39801235323668L249.57773185973463,134.6475048462035L249.61836964708758,136.27482810695673L249.86219637120533,137.02375234490273L250.1466608826761,129.91194807829126L251.20324335385303,134.7386056504715L251.6908968020885,133.52664285555764L252.13791246297103,138.60999258916675L252.2598258250299,130.51711835265272L252.38173918708884,131.9852531817174L253.19449493414797,128.4070802894086L253.43832165826572,125.4818871293084L253.72278616973648,129.50273474805059L253.96661289385423,130.7454275004414L254.61681749150154,133.1495324141633L254.73873085356047,134.20517060204907L255.185746514443,136.89481627717612L255.30765987650187,135.58936366037832L255.42957323856075,134.36725888958398L255.4702110259137,129.32724058155222L257.42082481885575,125.11584622373383L257.5427381809146,126.14637873653325L257.6646515429735,122.68941816990153L257.7052893303264,125.31307084232017L258.59932065209154,130.81911699436918L259.08697410032704,135.80758967007228L259.16824967503294,124.40566129441589L259.3308008244448,131.68242162850024L259.49335197385665,131.69053417518893L259.6559031232685,138.4882561835675L260.6718478070925,146.78231592303925L260.71248559444547,150.20112066877098L261.159501255328,143.887711000917L261.48460355415165,143.94929251685653L261.64715470356344,144.4260673020407L261.7284302782694,147.85039125356016L262.4192726632697,149.63266253692643L263.0288394735641,156.75354718113837L263.1913906229759,151.18323337031845L264.2073353067999,150.26194186123627L264.85753990444726,150.95598902311363L264.8981776918002,147.16063175830377L265.5077445020946,148.80739314233227L265.6702956515064,156.3720693247194L266.3205002491538,159.49363898196506L266.3611380365067,158.78681920766158L266.8894292720952,152.747326778972L267.2551693582718,152.40455623935264L267.45835829503665,151.2919689506755L267.6615472318015,150.00524848652557L267.7834605938603,155.2147959003589L267.98664953062513,160.72782696542856L268.108562892684,165.11950856993838L268.59621634091945,155.9181795245057L268.92131863974316,154.74680206149634L269.2057831512139,157.769013093713L269.49024766268457,161.27251544817994L269.8559877488612,147.0776401638925L270.0185388982731,158.88760986741502L270.059176685626,167.4786598519964L270.099814472979,169.32221361854235L270.1810900476849,170.2288350949431L270.3030034097438,171.72780527234525L270.5874679212145,164.2310724714751L270.9532080073911,161.13029681287085L271.35958588092075,155.1736164596689L271.52213703033254,155.90202186698662L271.60341260503844,144.34308209477297L271.7253259670973,156.32921007052272L271.92851490386215,161.5223407764042L272.050428265921,170.9373789637829L272.09106605327395,169.83952219980435L272.1317038406269,173.76714094052372L272.90382180033316,166.23354711933368L273.2695618865098,163.1633588932341L273.51338861062754,169.085949097273L273.7978531220983,160.13321790022297L273.8384909094512,168.82940213286284L274.2042309956278,166.09207960345583L274.48869550709856,166.13808521637606L275.3420890415107,161.7296882825073L275.50464019092254,156.10669263363823L275.9110180644521,165.72358430195743L276.073569213864,171.1017631945058L276.4393093000406,169.9339598553024L276.96760053562906,174.36355407013724L277.08951389768794,170.09865161858988L277.3333406218057,171.7069971398336L277.41461619651164,165.64828427862548L278.7963009665122,162.39109892282957L279.04012769062996,169.82252898646217L279.7309700756303,168.17340306690582L279.8122456503362,170.54328948821586L280.13734794915985,172.07898079652227L280.2592613112187,161.46116797409078L280.3405368859247,166.83015547750665L281.07201705827794,170.51550150591652L281.64094608121934,178.4956498643435L281.72222165592524,177.07538764548045L282.45370182827855,171.7279916260094L282.61625297769035,179.10971254206942L282.941355276514,179.9742178429066L283.63219766151434,180.92013910422358L283.8760243856321,183.3283106561639L284.8513312821031,180.5236379172533L285.3389847303386,176.03891241320883L285.3796225176916,168.34569088090197L285.50153587975046,164.62560874264756L285.54217366710344,159.32415518743832L285.62344924180934,170.82697280497052L285.7047248165153,176.90425757211054L285.8672759659271,173.74683149473853L286.02982711533895,169.95457953383325L286.2330160521037,173.69104909509613L286.3142916268096,174.16186473156438L286.92385843710406,172.9896314280964L288.3055432071047,168.27461744181807L288.4680943565165,176.8233375878382L288.5493699312224,181.81668693366032L288.7525588679872,160.759239419602L289.11829895416383,166.77829672799618L289.60595240239934,177.95622238275473L290.0123302759289,173.16673900155556L290.09360585063484,180.94880962893814L290.1748814253408,182.26737530814472L290.2155192126937,177.63729847213693L290.3780703621056,183.6265218871926L290.49998372416445,188.37143549443343L290.8250860229881,186.80738783094841L290.98763717239996,181.38369245543373L291.55656619534136,174.65984598905357L291.8003929194591,180.14503899260922L292.00358185622395,177.58496174233696L292.04421964357687,174.7679598233935L292.12549521828277,183.8326636267187L292.24740858034164,182.13868360844708L292.3286841550476,181.4134284320639L292.4099597297535,181.35245677919934L292.4505975171065,182.35039690396064L292.7350620285772,181.89442369338744L292.8569753906361,176.17350479124107L293.06016432740086,184.23445763126009L293.8322822871071,186.16331941688975L294.2386601606367,181.21701589929566L294.4824868847544,178.9689365957702L294.72631360887215,183.20076155527136L294.88886475828406,175.54786957596997L295.3765182065195,178.97369744369513L295.4171559938725,175.51723221332074L296.02672280416687,182.67275024080826L296.4331006776965,184.6530937784118L296.7988407638731,193.17410184667682L297.48968314887344,187.80899484390406L298.22116332122664,172.4829277771259L298.2618011085796,179.91670895528864L298.3430766832855,178.25017079821907L298.7494545568151,177.38104019127863L298.912005706227,182.37691312768837L299.6841236659332,179.54742786839938L300.13113932681574,167.32666104729563L300.4562416256394,169.62561862246199L300.70006834975715,175.86421688737488L300.7407061371101,178.60828487907182L300.8219817118161,185.3764439243154L300.903257286522,192.77880639178775L301.10644622328675,202.7158863999891L302.12239090711074,193.4724813305984L302.1630286944637,190.34238650822195L302.56940656799327,196.36679706490455L302.6506821426992,184.96003655909456L302.853871079464,181.66632940602034L303.42280010240546,186.6510937358989L303.6666268265232,179.89556515910587L304.0323669126998,185.45469055880955L304.6419337229942,186.4481856272089L304.804484872406,175.29263054933372L304.885760447112,179.92433976214477L305.4140516827004,190.69577894300926L305.90170513093597,186.69707175651945L306.3893585791714,189.68482225468816L306.4299963665244,180.17351876701554L306.7957364527011,186.1842748534962L307.0395631768188,194.34223377125002L307.73040556181905,196.22001004233698L307.97423228593686,204.03386877061016L308.01487007328984,194.08145393375932L308.3399723721135,192.25754451327032L308.58379909623125,192.72088902392963L308.827625820349,192.15755392244697L309.0308147571138,188.03599370728483L309.9654838662318,180.50707319315387L310.2499483777026,170.06133984503498L310.45313731446737,174.42357416659465L310.9814285500558,173.85075988893195L311.2658930615265,186.3672737362879L311.8754598718209,188.4407118718034L312.3631133200564,190.75111691112895L312.4850266821153,199.3549389735773L313.05395570505675,186.65201714944874L313.0945934924097,189.98736758065718L313.1758690671156,190.04285887812946L314.4762782624103,194.40956395090166L314.51691604976327,193.70378461620442L314.5575538371162,189.81749593272292L314.8420183485869,191.24415299072578L315.2890340094695,195.66684708293297L315.89860081976383,194.93393192413134L316.10178975652866,194.93345901176963L317.3209233771174,181.3616638363172L317.8492146127059,188.39700097786954L318.21495469888254,199.91076161024475L318.58069478505917,200.15744216542615L318.8245215091769,207.75632174327615L318.9870726585888,211.74920570071845L319.67791504358905,209.56708204625986L319.759190618295,202.27979332921188L319.799828405648,198.32570544136368L320.28748185388343,192.67083869993715L321.01896202623675,194.2376070731375L321.70980441123703,198.55628884313424L322.0349067100607,198.28034305760647L322.9695758191787,193.5687348632138L323.3353159053554,196.25968295567338L323.4165914800613,195.07926610904536L323.49786705476726,202.86413944756487L323.66041820417905,206.5777801509298L323.70105599153203,210.54354243818622L324.14807165241456,195.1343670028585L324.26998501447343,198.77368709468368L324.59508731329714,202.2129363352807L324.717000675356,204.86975188477686L325.08274076153265,188.49069970018724L325.69230757182703,194.59063792767918L325.8548587212389,201.85879809733717L325.9361342959448,211.06921870038354L326.54570110623916,214.8953788366382L327.07399234182765,209.04499998293485L328.0086614509457,205.96111125037294L328.61822826124006,209.59445015017897L328.65886604859304,201.8623511573401L328.9433305600637,200.5383142046292L329.1465194968285,198.22728254682661L329.3497084335933,184.58680140485396L329.5122595830052,196.75973130104973L329.5935351577111,197.75964445479914L330.24373975535843,190.2534566796494L330.9752199277117,190.29597178933898L331.01585771506467,187.10270179070534L331.30032222653534,193.45814468946512L331.4222355885942,197.70429018578008L332.39754248506523,193.56696480715303L332.5194558471241,185.03594911212895L332.8039203585949,196.25391460497448L332.92583372065377,196.82559032472707L332.96647150800675,195.8670442527932L333.04774708271265,203.05561798847293L333.0883848700656,212.63002810393718L333.9011406171248,220.66212059340836L334.1043295538896,207.63459227165896L334.47006964006624,218.20991126869956L335.44537653653725,200.37541638765785L335.7704788353609,207.54561175194175L336.3394078583023,202.55152037976552L336.3800456456553,205.34727172526422L336.5832345824201,204.46829021286908L337.07088803065557,214.41918352939035L338.2493838638914,204.62487526553053L338.3306594385973,206.5451507982671L338.4119350133032,193.3040874315561L338.7370373121269,196.00719905819207L339.4278796971272,201.58446538115385L339.631068633892,204.95799388608222L340.52509995565714,209.94650830947688L340.647013317716,210.25852232868976L340.8502022544808,210.05047087835953L341.13466676595147,198.96531893504934L341.2972179153634,208.2716198336483L341.3784934900693,218.8479393883831L341.622320214187,210.99390201559714L341.66295800153995,211.93951464795416L341.9067847256577,204.38263823323533L342.19124923712843,204.5339710931476L342.4350759612462,209.245799574082L342.55698932330506,197.36044246280179L343.24783170830534,181.71464108789326L343.7354851565409,196.734020621367L343.8573985185998,200.53042189281555L344.14186303007045,203.0283145080476L344.7920676277178,205.3423121257249L344.87334320242377,209.22343889927802L345.1171699265415,209.98631677496417L345.2797210759533,207.47742574689107L345.3609966506592,206.21313310344794L345.9299256736007,215.91134495315765L346.62076805860096,213.35965726309718L347.4335238056602,204.27129426958302L348.16500397801343,206.26780958117334L348.24627955271933,212.48283473403325L348.3275551274253,216.73009513510095L348.44946848948416,219.6976829023273L348.57138185154304,225.13700008921745L349.2622242365433,220.73849195042146L349.7092398974259,222.2161501543584L349.7498776847788,220.79410506542825L350.2781689203673,230.08058057401507L351.49730254095607,204.70938147023912L351.57857811566197,194.27091657099888L352.553885012133,201.05341452340298L352.71643616154483,204.6601051517391L352.79771173625073,205.15465039436643L353.04153846036854,203.68105917365295L353.1634518224274,203.36568650998657L353.2447273971333,202.51321193457423L353.61046748330995,200.5539488446354L353.8949319947806,207.4913558685167L354.42322323036916,202.89901854443573L354.7483255291928,214.94587828363376L355.27661676478124,220.3999469154971L355.3578923394872,229.70744206444894L355.47980570154607,230.62384106193355L355.9674591497816,225.31618760745988L356.1300102991934,220.7617029030214L356.3331992359582,231.1124186234733L356.4144748106641,226.65652822338788L356.8208526841937,205.16385759369214L356.98340383360556,202.00821417577455L358.16189966684135,213.162721767994L358.3650886036061,207.87853737784795L358.64955311507686,208.99359027936748L359.66549779890084,199.569417610195L359.7061355862538,212.4808391006823L360.0312378850775,215.34625231680963L360.4376157586071,210.94488010476823L360.76271805743073,210.57117313680556L361.04718256890146,207.24880836753118L361.20973371831326,211.91016634770577L361.65674937919584,208.53940121410727L361.9005761033136,207.57834182641037L362.14440282743135,216.40353125528748L363.03843414919646,207.42658321267098L363.485449810079,211.03926730713476L363.6886387468438,215.20448287075962L364.05437883302045,211.79864131194537L364.09501662037337,226.5832035730518L364.5826700686089,211.94410587526428L365.02968572949146,212.02111039150782L365.15159909155034,199.62013063848855L365.5579769650799,204.80050599375636L365.59861475243287,204.6141484004448L367.467952970669,205.5210066676636L367.67114190743376,216.72135409839058L367.71177969478674,221.56610696472023L368.11815756831635,223.29818464529552L371.08471604508236,225.40951645444267L371.5317317059649,218.3054496550546L371.57236949331786,216.97889117399853L371.65364506802376,220.12199625238532L371.73492064272966,231.7421435616815L371.85683400478854,224.32901227769617L371.8974717921415,209.27750132138053L372.9134164759655,199.19139327094837L373.11660541273034,213.52739736331503L373.2385187747892,215.5603385878433L373.56362107361286,218.54885765461702L374.0106367344954,212.21494852287498L374.3763768206721,215.05715298936707L374.49829018273095,219.86939732188358L374.5389279700839,218.942022514782L375.14849478037826,224.930667390389L375.7986993780256,231.05032856872734L376.04252610214337,218.38507256352923L376.20507725155517,218.75187386774556L376.5708173377318,209.91067681982432L376.65209291243775,208.96465030586612L377.0178329986144,218.44665258673334L377.18038414802623,220.22585179990367L377.424210872144,205.70357545432051L377.62739980890876,207.71850709755284L378.6839822800857,206.0302991260627L379.04972236626236,188.51056370654283L379.65928917655674,197.32748876156225L379.9437536880274,210.70006885020808L380.18758041214517,214.0698765228232L380.350131561557,228.3747319049923L380.39076934891,232.71839737398986L381.1628873086162,218.9200253688728L381.28480067067505,210.4593466894127L381.52862739479286,205.6109093657532L382.7477610153816,209.5953850547832L382.9915877394994,214.8796571851371L383.1541388889112,220.412990835989L383.27605225097005,216.59166853645064L383.60115454979376,220.84067143330086L383.68243012449966,227.6323880353034L384.3732725095,227.86337657540443L384.4139102968529,230.31843041759086L385.18602825655915,218.2334357515965L385.22666604391213,218.3613789142881L385.348579405971,210.32760821333662L385.71431949214764,209.78465851230527L386.0394217909713,203.6541881186237L386.12069736567724,210.60224119791812L386.16133515303017,216.68440710327994L386.77090196332455,219.3783379705484L387.17727983685415,228.7317390258633L387.29919319891303,227.86469982900377L387.74620885979556,231.3065767502002L387.86812222185443,232.5753733087777L387.9493977965604,231.92131511345423L388.0306733712663,232.31350854946385L388.5183268195018,227.038253508987L389.2091692045021,218.27594554038998L390.06256273891427,227.39581234534057L390.34702725038494,231.30576978493832L390.6721295492086,232.48569821328007L390.83468069862045,217.22618892611678L391.1191452100912,218.44376746646196L391.15978299744415,226.926139376571L391.20042078479713,225.87025757327555L391.6067986583267,222.97243414885702L392.66338112950365,223.6818377996083L392.8665700662684,220.9346455561717L393.5167746639158,221.56102549180022L393.7199636006805,218.46894634613668L393.96379032479837,216.7240883882064L394.12634147421016,225.2405736306842L394.16697926156314,223.1933271789145L394.4920815603868,221.7895618098974L394.61399492244567,231.93756262089656L394.65463270979865,239.7337486545071L394.73590828450455,222.47386694446354L394.8578216465634,213.49463304593436L395.22356173274005,209.49508966754735L395.38611288215185,210.5768678057822L395.5486640315637,218.69800444907543L395.6705773936226,219.9513866474203L395.71121518097556,213.5156134847016L395.95504190509325,221.340251917737L396.1988686292111,217.02141868637102L396.280144203917,204.74385991146048L396.4020575659759,221.05461856659596L397.82438012332943,227.03967171074885L398.3120335715649,223.1596180502082L399.0841515312712,207.04602369813563L399.1654271059771,221.2841924336203L399.81563170362443,213.6672074885423L399.9375450656833,213.9063961395203L400.0188206403892,224.75391497849017L400.0594584277422,216.0594191773631L400.83157638744837,210.3299256010553L401.80688328391943,200.51959477906678L401.9287966459783,202.11490350841711L402.45708788156674,216.81606671303368L402.7821901803904,210.25861278854373L403.147930266567,215.0316133666258L403.269843628626,229.5635984800877L403.3511192033319,241.41463899271275L403.3917569906849,235.0542731589414L403.9606860136263,225.5945025199854L404.28578831244994,232.60781075663482L405.179819634215,235.07630149392523L405.42364635833275,235.33432434588815L405.5455597203916,237.064682536103L405.8300242318624,231.33440675354117L406.35831546745084,218.61356990450923L406.4395910421568,215.48554464275702L406.4802288295097,199.68792034900596L406.76469334098044,204.0287225169113L407.49617351333364,218.17142685323407L408.4308426224518,194.25454496590103L408.63403155921657,199.8044929182563L408.67466934656954,203.23660237155835L409.4467873062757,212.007889604611L409.5280628809816,209.29723792180917L409.7718896050994,219.6168102417745L410.82847207627634,226.92352917849482L411.0316610130412,218.74278641813362L411.5599522486296,222.8451928972698L411.72250339804145,222.42564042754245L412.45398357039466,227.27597789275316L412.7790858692184,213.35552834428668L413.71375497833645,218.74819515109732L413.83566834039533,215.6694405207895L413.87630612774825,221.872809452442L414.0388572771601,224.02542950257413L414.0794950645131,219.32291987668705L414.2420462139249,217.4850523768154L415.13607753569005,217.81637885522088L416.0707466448081,214.45171015401962L416.5990378803965,210.01690014473624L417.24924247804387,219.90015662683066L417.69625813892645,219.80935479652098L418.34646273657376,215.91128878928183L418.9153917595152,221.1973160769564L418.95602954686814,230.62483280581844L419.077942908927,228.4807885827176L419.7687852939273,231.1855335457246L419.9313364433392,217.2343155795474L420.74409219039836,220.75268900239502L420.82536776510426,237.2640170085261L421.39429678804566,225.6111720419701L421.5974857248105,228.02348807326243L422.1664147477519,229.1978088087227L422.20705253510494,240.64111994443954L422.28832810981083,223.7681344315944L422.4915170465756,226.11023499426747L423.6293750924584,221.03056900956386L423.99511517863505,207.40752209233892L424.2795796901058,206.48748705148776L424.4421308395176,215.62786268591958L424.68595756363544,225.15282428724746L424.9297842877532,228.49953881371252L425.13297322451797,239.26200623554482L425.25488658657684,238.88581269898071L425.33616216128274,242.25404874906292L425.9457289715771,230.75977265044705L426.31146905775375,235.48096361252212L426.6365713565774,237.75903935114928L427.32741374157774,243.77325738626013L427.5306026783426,242.46956581478577L427.6118782530485,233.0416411735193L428.099531701284,245.8582312369775L428.1808072759899,241.39832114247596L428.42463400010763,238.31631579483997L428.9122874483431,245.49154388720876L429.1154763851079,244.2033890772291L429.5218542586376,250.2230968385884L429.9282321321671,241.67067154655967L430.6190745171674,251.15191982600186L431.06609017804993,256.26585262299494L431.14736575275583,235.58707013030482L431.3099169021677,238.1728443900506L431.9194837124621,211.82919846014718L433.5856329939334,213.2619776990986L433.7075463559923,216.65390650583555L433.8700975054041,210.65366739198237L434.4390265283456,224.92647266115367L434.88604218922814,232.948646559723L435.1705067006988,238.85778113962L435.8613490856991,230.34304697725247L435.98326244775797,231.4106264303807L436.1864513845228,226.49992435289286L436.38964032128763,225.00178979647498L436.6334670454054,229.54077627565886L437.1211204936409,226.67577874035433L437.16175828099387,222.01483338807355L437.85260066599415,227.87173511314842L437.974514028053,235.7413971245424L438.2589785395237,223.92122146796115L439.35619879805364,222.12681418225145L439.43747437275954,226.64958178924076L439.72193888423027,234.61692729709674L440.1283167577598,242.65106620915358L440.45341905658347,237.9572615850968L440.5346946312894,243.8054150450507L440.8191591427601,243.9783715806767L441.18489922893684,231.18526972163116L441.5912771024664,224.3927059167959L441.63191488981937,231.47735979762982L442.0382927633489,228.34511674552937L442.2008439127608,228.29161161769898L442.2414817001137,222.72913355675902L443.01359965981993,216.04950417599693L443.2167885965847,220.59370470208478L443.2980641712906,219.09432052739047L443.46061532070246,213.6642529102641L443.82635540687914,213.10659016208936L444.5578355792324,223.0887896108574L445.37059132629156,227.52949377750846L445.57378026305634,241.88638502982417L445.939520349233,243.32857831654871L446.1833470733508,242.22466402987195L446.22398486070375,240.10303904254036L446.2646226480567,237.5453083946599L446.38653601011555,229.03577372708574L446.5084493721744,211.65383974097097L447.4024806939395,223.2037846108525L448.09332307893976,231.61750866096114L448.13396086629274,236.74363648773954L448.29651201570465,224.90418558704866L448.4997009524694,221.09646101287808L448.78416546394016,227.7185480473099L449.1499055501168,215.63571902434242L449.2311811248227,211.1300937264334L449.6375589983523,207.52281902048517L449.88138572247,224.91044285597425L449.96266129717594,206.84559817484393L450.2064880212937,217.71438129963641L450.2877635959996,227.24872049861153L450.3690391707055,221.12211507265204L450.85669261894105,217.1320952263581L450.937968193647,200.39852581907178L451.0192437683529,209.05716037584048L451.95391287747094,218.85866729979313L452.31965296364757,220.5413351634492L452.44156632570645,211.94556687666915L453.0917709233538,207.39926377589234L453.4981487968834,224.34291537566736L453.5387865842364,238.3261084098285L453.6200621589423,223.19821432376534L453.86388888306004,224.3815693781009L454.1077156071778,227.83198259090608L454.39218011864847,214.08505448483663L454.59536905541324,219.60680310851075L454.879833566884,223.67281518417556L455.1236602910017,232.80551466217844L455.65195152659027,234.02480776523382L456.7085339977671,226.22362076291634L457.5212897448263,235.81445899646505L457.64320310688515,229.91091561926052L457.80575425629706,230.26209898693116L457.84639204365004,227.5687677212482L458.1308565551208,226.1360162822993L458.82169894012105,223.16593346322756L459.2687146010036,221.6992638724794L459.7157302618861,218.3551018281683L460.0001947733568,223.82940917154014L460.24402149747465,223.21021626494112L461.2193283939456,223.19241564470184L463.1293043995347,230.84023579291687L463.45440669835835,228.44945993989677L463.6169578477702,229.266461861596L464.14524908335864,234.58840265949874L464.59226474424116,224.97812800995808L464.754815893653,234.76485806639366L465.0799181924768,226.39630797442337L465.1205559798297,224.26166868477003L465.28310712924156,230.85206915302967L465.6488472154182,216.62130986232762L465.6894850027711,215.36974308904556L466.0958628763007,217.58886884043915L466.13650066365364,234.74184488784263L466.1771384510066,235.19722832808063L466.50224074983026,241.30795461020594L467.31499649688953,222.55336117935585L468.2903033933605,226.96385657631146L468.45285454277234,224.43693235809693L468.53413011747824,218.08569077918935L468.5747679048312,216.64694673859998L468.6966812668901,211.8724937842593L469.06242135306667,228.57622581991342L469.10305914041965,237.49058643584334L469.4687992265963,237.39974670667723L469.5907125886552,208.83761568686123L469.9970904621848,219.22204979361516L470.2002793989496,225.39655164428123L471.66323974365605,234.61674325674167L472.0289798298328,243.89932720046934L472.1102554045387,248.8955388632683L472.2728065539505,252.9776823924379L472.51663327806824,243.01829947862845L472.6385466401271,243.08555505709845L472.92301115159785,240.93184762811677L473.0449245136567,232.12729564069335L473.2481134504215,245.65740910294429L473.3700268124804,237.64608253435875L473.695129111304,239.26016307159733L473.8576802607159,231.57892599506545L474.0202314101277,231.16137319231655L474.42660928365734,230.86416599935566L474.4672470710103,226.19269519192113L474.9549005192458,232.88591537513932L475.1174516686576,227.63212242550296L475.40191618012835,228.19650048669357L475.56446732954015,230.1764063263498L476.0114829904227,228.86248024043257L476.4991364386582,238.17312207803633L477.1493410363056,245.5121262937767L478.16528572012953,239.10623321069372L478.7748525304239,245.38688868722525L479.0999548292476,236.4744800430899L479.3437815533654,228.26083274626563L479.50633270277723,236.23034594326248L479.6688838521891,226.22045668174314L479.99398615101273,230.27382009707918L480.2378128751305,233.73238816181544L480.2784506624834,233.91319326042418L480.9692930474837,239.6928599074367L481.33503313366043,234.21746986907593L481.5788598577781,228.158959783098L481.90396215660184,228.49724866417574L482.0258755186607,230.84654637324485L482.91990684042577,233.9840665714955L483.04182020248464,241.49870690838455L483.61074922542605,244.19863073942838L483.77330037483796,244.66330863055373L484.0984026736616,246.81153517195474L484.2203160357205,243.29565380624237L484.46414275983824,245.17552724152713L485.19562293219144,247.862453700633L485.2768985068974,260.8830936317043L486.0083786792506,252.13823485862463L486.1709298286625,241.2514466726612L486.2928431907214,235.23660469691214L486.90241000101577,242.15928186307923L487.02432336307464,241.915553637544L487.1868745124865,247.976884424441L487.47133902395717,238.02902264285734L487.9996302595456,235.64841459274288L488.24345698366335,229.34458180061344L488.81238600660487,239.2625434085757L489.3000394548404,222.66748451531507L489.58450396631105,221.27287185471107L489.9096062651347,206.11771217112275L490.2347085639584,203.91564131177537L490.2753463513113,220.80144057064405L490.4785352880761,229.85244265816948L490.64108643748796,234.22145132583762L491.1693776730765,235.72306334646703L491.3319288224883,230.5327228401517L491.90085784542975,229.02609678382694L492.3885112936652,225.40808102600116L492.4291490810182,224.51323218845226L492.71361359248885,233.62810061721135L493.03871589131256,234.43193163162084L493.2825426154304,223.39538979014932L493.5263693395481,226.44018899942685L493.8108338510188,219.4327331180968L493.89210942572475,213.44353071770036L494.2578495119013,209.1288630481001L494.3391250866073,218.80221193983297L494.3797628739602,206.0764427078644L495.15188083366644,201.79197058171812L495.2737941957253,212.39725127344715L495.639534281902,210.27421260533342L496.1678255174904,217.1271487820912L496.61484117837296,223.34963857190328L496.73675454043183,226.75793460269836L497.14313241396144,224.846426384825L497.79333701160874,228.99903074249667L498.2403526724914,233.270517481516L498.9718328448446,228.6814773116139L499.3782107183742,230.53647736085617L499.41884850572717,229.85129273642968L499.62203744249194,234.81004257371575L499.66267522984487,235.19222982339124L499.9471397413156,244.47775039638572L500.10969089072745,237.562498717781L500.15032867808037,239.7764858650497L500.19096646543335,247.4439673388839L500.8005332757278,235.2773295774252L501.0849977871985,235.8990752365562L501.12563557455144,236.2197905889083L501.2881867239633,236.53615511892409L501.3694622986692,242.3771386697089L501.7352023848458,246.62862662461413L501.8977535342576,244.19173508580596L502.0196668963165,237.08943085257803L503.0762493674935,226.3519836273107L503.11688715484644,215.61354837117716L503.48262724102307,224.82320986873862L503.60454060308194,228.39410664625035L503.7670917524938,222.57332654729967L503.8890051145527,230.13159535288403L504.2953829880822,229.7396195069979L504.3360207754352,222.39293407723812L504.3766585627881,228.50305654244357L504.4172963501411,239.63612810176943L504.6204852869059,241.1032640593585L504.8643120110236,237.51478836096706L505.02686316043554,236.97283306100053L505.1081387351415,246.29621993027104L505.7583433327888,248.28243833620945L506.00217005690655,249.32428029078193L506.04280784425947,245.30087178280294L506.3679101430832,232.78142509742506L506.6117368672009,240.7116552072539L507.14002810278936,243.27805489164155L507.42449261426015,243.4321553819209L507.8308704877897,223.6435697298807L508.56235066014295,231.20035179884377L508.8874529589666,219.48214843071597L509.8221220680847,222.19498494714247L510.1065865795554,221.58780027649405L510.3504133036732,233.57750118092025L510.47232666573206,225.13516397669315L511.73209807367374,227.0748285914383L511.77273586102666,234.18476694377495L512.4229404586741,234.68903462042286L512.463578246027,232.39930096968735L512.8699561195566,228.3945555117669L512.9918694816155,246.24567390655127L513.0731450563214,253.26378514382844L513.5201607172039,255.80755113211723L513.7639874413217,242.33154055261983L513.8859008033805,245.6049215820113L514.0484519527924,249.47878475863578L514.6986565504399,235.36871348557887L514.7799321251457,232.52352930484548L514.8205699124986,233.38443369939162L514.9831210619105,235.8035196112622L515.1050344239694,225.9763512401111L515.1863099986753,214.1359214700488L515.7552390216167,219.04486204437484L515.9177901710285,216.24942725214657L516.3648058319111,230.26383577621115L516.48671919397,237.2456812364955L517.2994749410292,241.5358036050177L517.6245772398529,236.87821290878287L518.0309551133824,219.24987818947483L518.0715929007354,220.82843797647718L518.518608561618,236.28574430890032L519.453277670736,242.66738630851478L519.6564666075008,227.30023183159773L520.3473089925011,231.4261168346428L521.2819781016191,212.38305803283885L521.363253676325,222.23183823969504L522.1353716360313,217.85475023707042L522.1760094233842,225.08766923536905L522.338560572796,228.6460965701783L522.501111722208,229.51629365459746L523.2325918945612,231.3305661388922L523.476418618679,234.37740263305125L523.5170564060319,237.9853533911535L525.2238434748562,229.65454163383257L525.5489457736799,222.43130542013688L525.8740480725035,220.98106483103086L525.9146858598565,233.82816442220084L526.6055282448568,236.89075213897743L526.9306305436805,228.40631840615382L527.1338194804453,237.42045795946672L527.296370629857,239.79656066663534L527.7433862907396,247.8792020134842L528.2310397389751,242.127711081138L528.352953101034,243.57758914877186L528.4342286757399,247.05700703467153L528.5967798251518,242.39176914792696L528.9218821239755,232.47215224802684L530.5067558307409,234.6065618596926L531.360149365153,241.76572599844638L531.6039760892708,236.33707430281862L531.6446138766237,228.2825117724847L531.7258894513296,224.8130023472806L532.335456261624,232.48986219485744L532.6199207730947,230.111704608512L533.5545898822128,232.5264702101001L533.6358654569187,230.8553007646954L533.7171410316247,241.9373425714926L534.1641566925072,227.48632139068587L534.286070054566,235.7609983080114L534.9769124395664,225.91626632904604L535.2207391636841,222.05015636238807L535.7490303992727,229.2995737950879L536.5617861463318,231.3117349716026L536.9275262325084,239.13911589085222L537.4964552554497,234.3682715921248L537.5777308301557,235.945610961237L537.6590064048617,240.61241548103382L538.0247464910383,227.89116000775806L538.3904865772149,234.122653624258L538.7155888760386,227.39565490555205L539.5283446230977,225.6911215156714L539.6096201978037,233.15615333160508L539.7315335598626,238.33352653983007L539.8128091345685,233.58947908155767L540.0566358586863,233.16587067930882L540.5442893069218,225.10504838839617L540.5849270942748,231.1695709708779L540.8693916057455,232.22857958372094L540.9913049678044,225.89375067658898L541.1132183298632,231.95943001475655" style="fill: none;" fill="none"></path></g></g></g></g><g opacity="0.2"><g><g><g><path stroke="rgb(255, 112, 67)" stroke-width="2px" d="M209.34632238030514,-9.315959090797207L210.24035370207025,17.07118194892371L210.44354263883503,25.138429805751002L211.05310944912944,31.00232531895068L211.2969361732472,36.29652744383486L211.50012511001196,41.431250366572954L211.78458962148267,59.74675831294394L212.02841634560042,49.1689481853312L212.80053430530666,60.81519538441131L213.45073890295401,60.388787980366544L213.53201447765994,76.4075287083258L213.8571167764836,89.68599204978676L214.3447702247191,89.78700829164217L214.71051031089576,76.75735736564542L215.0356126097194,88.95066065022718L215.68581720736677,108.7929186547571L215.8483683567786,96.2092438923093L218.2459978106032,115.10001867605263L218.28663559795615,117.30206331209587L218.97747798295643,98.73061831652444L219.0993913450153,99.0937361445508L219.2213047070742,112.7526967075326L219.83087151736856,111.70308380546635L219.95278487942744,117.95827656109248L219.99342266678042,115.1140534366076L220.39980054031003,80.37030840308813L221.0906429253103,124.19056658407922L221.17191850001623,107.84136072469465L222.02531203442837,92.5092895208561L222.7161544194287,99.98277155043388L222.91934335619348,102.16182519947847L224.0165636147234,116.74695677321245L224.42294148825297,110.6381274897148L224.6667682123707,130.5130965607948L224.74804378707663,109.52863171037109L224.9512327238414,116.13901792967977L224.99187051119438,106.2537612471707L225.60143732148876,130.1279230259767L226.33291749384205,119.87633237226063L226.41419306854797,118.74946394651693L226.90184651678345,106.30375637816803L227.18631102825415,114.252871485676L227.22694881560713,112.00598183799036L227.30822439031303,89.53994113548413L227.43013775237196,113.05277062753879L227.51141332707786,121.48884123068117L227.99906677531337,101.35526869383023L228.40544464884294,118.97292149170181L228.89309809707848,132.19175864688353L229.09628703384325,118.89097744331679L230.1528695050202,129.01898461879017L230.31542065443202,132.8108903979123L230.47797180384387,124.43725165068685L230.51860959119682,111.60951904983506L230.80307410266752,76.6509858418496L231.16881418884418,123.01616785204286L231.331365338256,106.06071948619496L231.49391648766783,123.45356457735915L231.69710542443264,115.0931463157304L231.85965657384446,114.73848840395601L232.22539666002112,101.93777913087837L232.38794780943294,113.86695545161513L232.46922338413887,98.13913474990943L232.55049895884477,102.15124118218182L232.8349634703155,95.06706733153584L233.03815240708028,95.87598832220795L233.1194279817862,125.13285823403552L233.32261691855098,103.65352823604093L233.40389249325693,93.01019719382276L233.56644364266876,111.78305523190113L233.72899479208058,122.57853947523068L233.97282151619834,144.31558323109195L234.01345930355131,134.4469211341248L234.94812841266938,124.90773086656463L235.1106795620812,120.53991571876102L236.45172654472884,117.0212427228787L236.73619105619954,117.49866621821019L236.98001778031733,137.81514622520206L237.54894680325873,125.52665913647965L237.71149795267058,134.48084619366935L237.9959624641413,126.24989755814497L238.07723803884724,121.89384813220647L238.321064762965,133.04031330331208L238.4023403376709,139.81414037131808L238.9712693606123,123.39768863415284L239.01190714796525,133.90854832683354L239.41828502149488,121.89971059624801L239.54019838355376,116.91374622033146L239.90593846973036,137.61715267072458L240.0684896191422,123.33861815177536L240.23104076855404,107.75623422913947L240.5967808547307,123.30425243862942L240.63741864208365,112.93321245331913L240.8812453662014,135.558176995661L240.92188315355435,153.52246102410234L241.12507209031915,140.8458378778143L241.61272553855463,112.67574871236917L241.8565522626724,150.9131781523124L241.97846562473129,130.7257099738311L242.34420571090791,129.99592948723745L243.56333933149668,106.5151964626437L244.0916305670852,113.87213056719281L244.3354572912029,140.84449778282573L244.4573706532618,124.72975271173667L244.53864622796772,122.74556109905174L244.70119737737954,132.55199929621364L244.9450241014973,149.56126296055257L245.14821303826207,141.85796314209742L245.5545909117917,102.5377506360918L245.79841763590943,130.09339419484658L246.00160657267423,121.95646904510912L246.40798444620384,136.72064766186352L246.61117338296864,148.64410547341907L248.1147715150281,142.4030876473233L248.27732266443994,148.8705521941897L248.31796045179289,165.61545036743485L248.35859823914586,112.22677112887828L249.09007841149912,152.36310430353814L249.57773185973463,122.21350368790203L249.61836964708758,140.1600358038511L249.86219637120533,138.7896437760512L250.1466608826761,114.79407677925195L251.20324335385303,146.81884187881775L251.6908968020885,130.7454606332709L252.13791246297103,151.3825691569111L252.2598258250299,113.51988250544554L252.38173918708884,135.48243912348917L253.19449493414797,120.45108668078745L253.43832165826572,118.9216932119138L253.72278616973648,139.4445787764327L253.96661289385423,133.6961119605901L254.61681749150154,138.9538986642029L254.73873085356047,136.70506674062128L255.185746514443,143.4156189235011L255.30765987650187,132.59744829482696L255.42957323856075,131.56319002559403L255.4702110259137,118.3306544602155L257.42082481885575,115.82874146678688L257.5427381809146,128.58595406979185L257.6646515429735,114.99072964808653L257.7052893303264,131.6677612536571L258.59932065209154,144.74382916748448L259.08697410032704,148.323628920445L259.16824967503294,101.38405233739212L259.3308008244448,150.60402282308416L259.49335197385665,131.70946558476973L259.6559031232685,156.0300036876671L260.6718478070925,168.7068564887738L260.71248559444547,158.57897651718085L261.159501255328,130.3329253496659L261.48460355415165,144.09310578764774L261.64715470356344,145.5459672289442L261.7284302782694,156.24245729009215L262.4192726632697,153.89726255450722L263.0288394735641,175.22380306534214L263.1913906229759,139.11135809250393L264.2073353067999,148.13938657192284L264.85753990444726,152.59122217129988L264.8981776918002,138.74562969103516L265.5077445020946,152.74010272471716L265.6702956515064,176.13339373236605L266.3205002491538,167.1096443765779L266.3611380365067,157.1535920688808L266.8894292720952,139.7359680333946L267.2551693582718,151.60854700959518L267.45835829503665,148.73537395828905L267.6615472318015,147.0555140152133L267.7834605938603,168.3297656457661L267.98664953062513,174.67170532548033L268.108562892684,176.0389258678607L268.59621634091945,136.85034844514757L268.92131863974316,152.05726884647L269.2057831512139,165.13184376792742L269.49024766268457,169.86869816450144L269.8559877488612,119.31632296782954L270.0185388982731,192.03117532098096L270.059176685626,190.29915598344414L270.099814472979,173.73733207700343L270.1810900476849,172.37132021338468L270.3030034097438,175.30001424538514L270.5874679212145,148.3704716194636L270.9532080073911,154.1924318164491L271.35958588092075,142.32728052270494L271.52213703033254,157.61903581322773L271.60341260503844,121.04700390745501L271.7253259670973,190.07262464585952L271.92851490386215,174.59269379304823L272.050428265921,196.2912315681353L272.09106605327395,167.3162696539377L272.1317038406269,183.46494012242155L272.90382180033316,150.30218717668112L273.2695618865098,156.29116107651143L273.51338861062754,184.16099371188645L273.7978531220983,141.52501360963078L273.8384909094512,191.9692117307028L274.2042309956278,159.9379249888065L274.48869550709856,166.24550031471858L275.3420890415107,152.0328723396855L275.50464019092254,143.9287759630787L275.9110180644521,191.70898260271812L276.073569213864,184.6763518374584L276.4393093000406,167.25250249942812L276.96760053562906,185.3835362123656L277.08951389768794,160.70005961663583L277.3333406218057,175.54585357586865L277.41461619651164,152.5986729479481L278.7963009665122,155.1182645363247L279.04012769062996,189.194251897291L279.7309700756303,164.41138832028867L279.8122456503362,176.26220015926492L280.13734794915985,175.7406194744943L280.2592613112187,139.82519759526724L280.3405368859247,180.37963012432994L281.07201705827794,179.58229703139892L281.64094608121934,199.48278719672123L281.72222165592524,173.82541211632565L282.45370182827855,160.10637808118202L282.61625297769035,198.3365236750826L282.941355276514,182.01596187731317L283.63219766151434,183.1567368711568L283.8760243856321,189.1428383986014L284.8513312821031,174.22369000122168L285.3389847303386,166.18390964404568L285.3796225176916,152.10863764768118L285.50153587975046,156.36940408954865L285.54217366710344,147.79565353556015L285.62344924180934,202.93383593580276L285.7047248165153,192.41036008243267L285.8672759659271,166.68748455380677L286.02982711533895,161.5461221673504L286.2330160521037,182.89061483548446L286.3142916268096,175.26767483340512L286.92385843710406,170.29816452767335L288.3055432071047,157.94422123673286L288.4680943565165,199.51558809221777L288.5493699312224,194.34589386494596L288.7525588679872,122.50120858405191L289.11829895416383,182.12190073366955L289.60595240239934,208.9790186504751L290.0123302759289,162.6832095575524L290.09360585063484,201.34944417894175L290.1748814253408,185.40159339267962L290.2155192126937,167.4819159221568L290.3780703621056,198.8869825681001L290.49998372416445,200.23234066137988L290.8250860229881,183.23535042205665L290.98763717239996,169.60768066194723L291.55656619534136,160.29767012054265L291.8003929194591,194.0125562111787L292.00358185622395,171.81573265514635L292.04421964357687,168.44135090956487L292.12549521828277,208.100735960454L292.24740858034164,178.27668607171032L292.3286841550476,179.73802704481218L292.4099597297535,181.2103099980382L292.4505975171065,184.71172732413157L292.7350620285772,180.83717877609635L292.8569753906361,163.79885405744812L293.06016432740086,205.46196034554265L293.8322822871071,190.7884097638745L294.2386601606367,170.41196095455618L294.4824868847544,173.88168577334042L294.72631360887215,193.69742494347275L294.88886475828406,159.38793711369655L295.3765182065195,187.3696359882679L295.4171559938725,167.8195968404591L296.02672280416687,201.2430914292118L296.4331006776965,189.40514860169623L296.7988407638731,215.78249246186556L297.48968314887344,176.1515151432047L298.22116332122664,142.88409735262576L298.2618011085796,199.2952916458707L298.3430766832855,174.44932867078555L298.7494545568151,175.37722865325316L298.912005706227,194.9129348789042L299.6841236659332,173.19383342268787L300.13113932681574,142.8844054438514L300.4562416256394,175.16766620724948L300.70006834975715,191.82207282079332L300.7407061371101,185.2663171542715L300.8219817118161,202.83373333077998L300.903257286522,212.06576309569516L301.10644622328675,229.71214612217375L302.12239090711074,174.3271248113601L302.1630286944637,183.34162656744505L302.56940656799327,211.72532819261693L302.6506821426992,161.92996589056875L302.853871079464,174.31547666184284L303.42280010240546,199.15712126753763L303.6666268265232,165.4714055591261L304.0323669126998,199.52515390288858L304.6419337229942,188.79885035125574L304.804484872406,152.7037011890793L304.885760447112,191.48240754157212L305.4140516827004,220.37996925071178L305.90170513093597,177.85463462551817L306.3893585791714,196.96001792423925L306.4299963665244,160.53636318054532L306.7957364527011,201.50473652902323L307.0395631768188,215.85914834649668L307.73040556181905,200.7192995828355L307.97423228593686,224.5283689360929L308.01487007328984,173.64125704633202L308.3399723721135,188.10660541883055L308.58379909623125,193.8090377050899L308.827625820349,190.8533034947554L309.0308147571138,178.93640907828035L309.9654838662318,164.5846807029505L310.2499483777026,148.73283506172336L310.45313731446737,185.2649613071754L310.9814285500558,172.52473592026675L311.2658930615265,221.94049375754366L311.8754598718209,193.42283744685955L312.3631133200564,196.3216843570293L312.4850266821153,222.2141661802922L313.05395570505675,161.38551606119543L313.0945934924097,198.15063972660553L313.1758690671156,190.17243849137114L314.4762782624103,205.26279330067436L314.51691604976327,192.07293830273295L314.5575538371162,181.21108104450383L314.8420183485869,194.640527001306L315.2890340094695,206.66851770658388L315.89860081976383,193.24101323503697L316.10178975652866,194.93235555684282L317.3209233771174,154.63218102352826L317.8492146127059,206.62051816896374L318.21495469888254,232.05436078365312L318.58069478505917,200.73501065151572L318.8245215091769,227.6179287063651L318.9870726585888,221.6177773030502L319.67791504358905,204.6247258645613L319.759190618295,186.82245405147833L319.799828405648,189.57686432384213L320.28748185388343,180.42883790998917L321.01896202623675,197.97500357978657L321.70980441123703,209.28239736781504L322.0349067100607,197.63892757349643L322.9695758191787,183.24534902352602L323.3353159053554,202.78376717752812L323.4165914800613,192.36931158680326L323.49786705476726,223.27304604235948L323.66041820417905,215.71803312208812L323.70105599153203,220.3411068939834L324.14807165241456,165.40231463101074L324.26998501447343,207.72112500140906L324.59508731329714,210.6434419233121L324.717000675356,211.3078770238207L325.08274076153265,157.22149915720456L325.69230757182703,210.16004154254878L325.8548587212389,220.75543748531248L325.9361342959448,235.78732843867283L326.54570110623916,224.32836798198355L327.07399234182765,196.41099589922698L328.0086614509457,199.05949373943992L328.61822826124006,218.52638929544233L328.65886604859304,185.55102536466688L328.9433305600637,197.5045719553421L329.1465194968285,193.00197209214724L329.3497084335933,157.7428729353935L329.5122595830052,231.14350331599636L329.5935351577111,200.12570949245642L330.24373975535843,174.37469983130728L330.9752199277117,190.39523235231886L331.01585771506467,179.96658374387198L331.30032222653534,209.74466751222923L331.4222355885942,208.23874176187158L332.39754248506523,184.43444053452842L332.5194558471241,167.2136958480283L332.8039203585949,227.40962563346403L332.92583372065377,198.17019211949955L332.96647150800675,193.65978280656813L333.04774708271265,221.721590177805L333.0883848700656,238.48214797480202L333.9011406171248,241.80369984953137L334.1043295538896,181.81819670413932L334.47006964006624,247.25516212284793L335.44537653653725,166.85845509342283L335.7704788353609,226.15840218423247L336.3394078583023,191.64874129516744L336.3800456456553,212.13583039809595L336.5832345824201,202.44204022919646L337.07088803065557,241.45930631560353L338.2493838638914,184.47155379868806L338.3306594385973,211.14908406582194L338.4119350133032,167.1281322653256L338.7370373121269,202.5619366216775L339.4278796971272,215.70479762177985L339.631068633892,213.21936606627398L340.52509995565714,222.4626602759604L340.647013317716,210.98972685427L340.8502022544808,209.56641624630055L341.13466676595147,176.50048229287702L341.2972179153634,233.2870733231725L341.3784934900693,247.89643869119428L341.622320214187,194.45007544747207L341.66295800153995,214.17537292179074L341.9067847256577,188.40661729208918L342.19124923712843,204.88782535530436L342.4350759612462,221.01808878347666L342.55698932330506,173.4969030167819L343.24783170830534,151.60459114470515L343.7354851565409,241.45950805379013L343.8573985185998,209.88589265052005L344.14186303007045,209.06733943584268L344.7920676277178,210.92183197053356L344.87334320242377,218.7997922602426L345.1171699265415,211.7854630395679L345.2797210759533,201.8196947544848L345.3609966506592,203.3139295882734L345.9299256736007,242.15241692195477L346.62076805860096,207.60869265632314L347.4335238056602,185.4119871512755L348.16500397801343,211.05978630158037L348.24627955271933,228.3745307020643L348.3275551274253,227.26748934495515L348.44946848948416,226.92164499297127L348.57138185154304,238.87882230968953L349.2622242365433,211.06219264438823L349.7092398974259,225.73649959562928L349.7498776847788,217.5401284580282L350.2781689203673,255.03447162690122L351.49730254095607,160.56838351967346L351.57857811566197,172.95542588681175L352.553885012133,218.5516585666142L352.71643616154483,213.52302568543183L352.79771173625073,206.31658081914958L353.04153846036854,200.31148721414812L353.1634518224274,202.63302557241354L353.2447273971333,200.54735333994591L353.61046748330995,196.10307532020093L353.8949319947806,225.43325690928333L354.42322323036916,192.82152038950028L354.7483255291928,248.89699739746354L355.27661676478124,234.18216696339238L355.3578923394872,254.72660531262977L355.47980570154607,232.78973099178873L355.9674591497816,213.77511427732813L356.1300102991934,210.7623980408403L356.3331992359582,259.43136245292794L356.4144748106641,216.86124830129543L356.8208526841937,166.28919204490458L356.98340383360556,194.95268724645368L358.16189966684135,244.10786904455404L358.3650886036061,196.38506318373243L358.64955311507686,211.63641206236503L359.66549779890084,180.09187233221664L359.7061355862538,249.44019876805285L360.0312378850775,222.31105639239624L360.4376157586071,201.26263806853734L360.76271805743073,209.70369148151275L361.04718256890146,199.83678896314214L361.20973371831326,223.54744719899486L361.65674937919584,201.0241802458029L361.9005761033136,205.36536892339424L362.14440282743135,239.936704460287L363.03843414919646,188.77348550037055L363.485449810079,219.91770602822774L363.6886387468438,225.5255967893511L364.05437883302045,204.20871016236276L364.09501662037337,270.4113297638313L364.5826700686089,183.45576118578498L365.02968572949146,212.2009800729848L365.15159909155034,174.8687490934196L365.5579769650799,217.83620865061465L365.59861475243287,204.18043665789176L367.467952970669,207.66405852449054L367.67114190743376,247.8185572495163L367.71177969478674,233.6949700229058L368.11815756831635,227.4396998049427L371.08471604508236,230.48546888526124L371.5317317059649,203.20257977979392L371.57236949331786,213.93947546308746L371.65364506802376,227.79297407117718L371.73492064272966,264.2436489972206L371.85683400478854,208.6291300263796L371.8974717921415,180.1204960891975L372.9134164759655,178.50944576733335L373.11660541273034,255.66457288318773L373.2385187747892,220.44230532686532L373.56362107361286,225.82600686349448L374.0106367344954,198.6196424032273L374.3763768206721,221.96319849509922L374.49829018273095,231.9109207167736L374.5389279700839,216.8056296714767L375.14849478037826,240.18951652809145L375.7986993780256,246.6748814543408L376.04252610214337,193.18263887175664L376.20507725155517,219.6121308884414L376.5708173377318,191.50957004186134L376.65209291243775,206.78584512504108L377.0178329986144,244.00953193794987L377.18038414802623,224.48291337048067L377.424210872144,177.4057369298949L377.62739980890876,212.55596941100484L378.6839822800857,202.1811611017246L379.04972236626236,155.473858223455L379.65928917655674,220.83541076386462L379.9437536880274,249.30455020742812L380.18758041214517,222.32168297770815L380.350131561557,270.3955978438404L380.39076934891,243.51061622099405L381.1628873086162,191.81367755183967L381.28480067067505,192.76895329892824L381.52862739479286,195.0063572688923L382.7477610153816,219.4419367866476L382.9915877394994,228.19799829802102L383.1541388889112,234.41260202082475L383.27605225097005,208.12196347605857L383.60115454979376,231.38266491424068L383.68243012449966,245.15697226244708L384.3732725095,228.40408596999043L384.4139102968529,236.25019216956463L385.18602825655915,194.02491043748577L385.22666604391213,218.6604447374582L385.348579405971,193.44233141171225L385.71431949214764,208.5272523027594L386.0394217909713,190.46192640925767L386.12069736567724,228.5747137998762L386.16133515303017,232.20414526110903L386.77090196332455,225.90993807535284L387.17727983685415,253.89361712161718L387.29919319891303,225.86565289354445L387.74620885979556,239.74385160693421L387.86812222185443,235.58915707067732L387.9493977965604,230.40890731551514L388.0306733712663,233.23364435405878L388.5183268195018,215.5628969180463L389.2091692045021,200.02165339261458L390.06256273891427,251.833989406847L390.34702725038494,240.95741427540287L390.6721295492086,235.28485772519414L390.83468069862045,187.7342234835367L391.1191452100912,221.33378897893255L391.15978299744415,249.41774264714618L391.20042078479713,223.44208842194448L391.6067986583267,216.4712686570262L392.66338112950365,225.353613258679L392.8665700662684,214.75910972126044L393.5167746639158,223.03542576520653L393.7199636006805,211.54974625434582L393.96379032479837,212.7488264879602L394.12634147421016,247.8352850636722L394.16697926156314,218.54807090051824L394.4920815603868,218.57661730654203L394.61399492244567,259.6058918995324L394.65463270979865,260.1760517992411L394.73590828450455,189.8360527325065L394.8578216465634,194.83729912761882L395.22356173274005,200.65089952136015L395.38611288215185,213.1396154566613L395.5486640315637,240.1049521530114L395.6705773936226,222.92790444696993L395.71121518097556,199.71926204954542L395.95504190509325,241.86660531282348L396.1988686292111,207.51061374293033L396.280144203917,180.20405081681938L396.4020575659759,270.87184731025815L397.82438012332943,242.28851660488888L398.3120335715649,214.56631365563513L399.0841515312712,176.19435957508568L399.1654271059771,263.056529600917L399.81563170362443,197.57600236512238L399.9375450656833,214.46636482142577L400.0188206403892,254.68716682107737L400.0594584277422,197.93154833967174L400.83157638744837,197.93807079300777L401.80688328391943,180.33715278955756L401.9287966459783,205.92193348518444L402.45708788156674,260.3275094328627L402.7821901803904,196.22276835479525L403.147930266567,226.96781793378534L403.269843628626,272.43586528889705L403.3511192033319,274.6977110398759L403.3917569906849,221.40670159036583L403.9606860136263,206.05170754468807L404.28578831244994,250.76790204413854L405.179819634215,241.04169318199763L405.42364635833275,235.938544894951L405.5455597203916,241.20198430637143L405.8300242318624,218.9409827247407L406.35831546745084,193.31661544668216L406.4395910421568,208.4892227005801L406.4802288295097,169.33635804543658L406.76469334098044,214.8133621256201L407.49617351333364,259.5891191332536L408.4308426224518,152.0414372559907L408.63403155921657,213.84973847991014L408.67466934656954,211.6487175575317L409.4467873062757,235.37649544272023L409.5280628809816,203.2008894801144L409.7718896050994,247.83549781528745L410.82847207627634,245.93213919857314L411.0316610130412,201.5793970620727L411.5599522486296,233.001097194308L411.72250339804145,221.45235402547053L412.45398357039466,239.4198537050277L412.7790858692184,186.04691279087552L413.71375497833645,232.36238428356788L413.83566834039533,208.77884645225498L413.87630612774825,237.73180951267L414.0388572771601,229.20373133542432L414.0794950645131,209.01826520477226L414.2420462139249,213.3031327635433L415.13607753569005,218.59305167790114L416.0707466448081,206.94948111154687L416.5990378803965,200.26530953490985L417.24924247804387,246.72570496186952L417.69625813892645,219.59775078335826L418.34646273657376,207.2801152807044L418.9153917595152,234.5204397109648L418.95602954686814,256.01760042104627L419.077942908927,223.62220328079718L419.7687852939273,237.74438811616275L419.9313364433392,189.87480667641438L420.74409219039836,229.3872621716629L420.82536776510426,287.8968919210498L421.39429678804566,202.15141041976926L421.5974857248105,233.84837305351707L422.1664147477519,231.98344345462127L422.20705253510494,272.5484731967184L422.28832810981083,191.72831222578014L422.4915170465756,231.75981730571175L423.6293750924584,209.95308922221176L423.99511517863505,180.59262626421364L424.2795796901058,204.36779011120728L424.4421308395176,240.12936383756045L424.68595756363544,250.85005371063005L424.9297842877532,236.69199979262584L425.13297322451797,268.9168702044199L425.25488658657684,238.0125889732822L425.33616216128274,250.50181510647872L425.9457289715771,207.57661249084939L426.31146905775375,247.27832038494546L426.6365713565774,243.2490870352555L427.32741374157774,259.1033696213693L427.5306026783426,239.48161504328047L427.6118782530485,213.55721608954875L428.099531701284,282.48284723037915L428.1808072759899,231.59471304263667L428.42463400010763,231.41874193144005L428.9122874483431,264.11889444275647L429.1154763851079,241.2504240013953L429.5218542586376,265.56851444774816L429.9282321321671,223.80832608561482L430.6190745171674,276.71244290167124L431.06609017804993,269.1212828900549L431.14736575275583,197.86996815871714L431.3099169021677,244.4323353521263L431.9194837124621,166.42890585534886L433.5856329939334,216.67322418020638L433.7075463559923,224.96259879945217L433.8700975054041,197.72048773376036L434.4390265283456,266.8278122526745L434.88604218922814,254.06071501736199L435.1705067006988,253.8954308721486L435.8613490856991,212.55129672168582L435.98326244775797,233.93922864328803L436.1864513845228,215.7677499672577L436.38964032128763,221.5772344676046L436.6334670454054,240.8515783805217L437.1211204936409,220.24546509702355L437.16175828099387,211.7958021417937L437.85260066599415,242.76437318083967L437.974514028053,256.40091437011006L438.2589785395237,200.17065944019012L439.35619879805364,218.04139447555323L439.43747437275954,237.91720462216637L439.72193888423027,255.56603958006565L440.1283167577598,263.79873539683183L440.45341905658347,227.67053191626948L440.5346946312894,258.67378900630956L440.8191591427601,244.3829093044481L441.18489922893684,205.76559805820915L441.5912771024664,209.89615091667852L441.63191488981937,249.84303436940655L442.0382927633489,221.33975036154692L442.2008439127608,228.16685905456373L442.2414817001137,210.67304257337585L443.01359965981993,201.7739167810498L443.2167885965847,231.91839263244668L443.2980641712906,215.66696670800764L443.46061532070246,201.87535977005848L443.82635540687914,211.8153717676187L444.5578355792324,250.2284006611846L445.37059132629156,238.57896755599086L445.57378026305634,284.10163355784437L445.939520349233,246.76269920289974L446.1833470733508,239.68769870320742L446.22398486070375,235.29381360481466L446.2646226480567,231.78118756612926L446.38653601011555,211.25376709032412L446.5084493721744,178.82839500655518L447.4024806939395,255.46895946091212L448.09332307893976,253.90197944648213L448.13396086629274,249.63212661924933L448.29651201570465,201.12019677434165L448.4997009524694,212.65539897768895L448.78416546394016,244.75970078494285L449.1499055501168,191.43092767992198L449.2311811248227,201.23183115572218L449.6375589983523,199.50516986115053L449.88138572247,279.1900223878074L449.96266129717594,172.97918053696046L450.2064880212937,247.71736677759134L450.2877635959996,252.9753036463539L450.3690391707055,207.93753023134894L450.85669261894105,208.307872707983L450.937968193647,168.57539501629992L451.0192437683529,232.08279444784532L451.95391287747094,245.4255415162318L452.31965296364757,224.56186091604349L452.44156632570645,194.00211902546334L453.0917709233538,197.4168698442382L453.4981487968834,276.7577229378447L453.5387865842364,279.1541803070485L453.6200621589423,193.91802559318194L453.86388888306004,227.1889944305081L454.1077156071778,236.29125177585067L454.39218011864847,187.06410701253577L454.59536905541324,233.5746077952694L454.879833566884,233.73313314953248L455.1236602910017,257.28330934576576L455.65195152659027,236.91896939502016L456.7085339977671,209.7804800280297L457.5212897448263,261.7180960543835L457.64320310688515,217.17064759318276L457.80575425629706,231.0855475014805L457.84639204365004,221.50998122224755L458.1308565551208,222.8580167741337L458.82169894012105,216.5090177985862L459.2687146010036,218.3452047318568L459.7157302618861,210.8965890910895L460.0001947733568,237.66708453340686L460.24402149747465,221.77774291951667L461.2193283939456,223.15089113408052L463.1293043995347,250.84552971559754L463.45440669835835,223.0495955834456L463.6169578477702,231.19472254584778L464.14524908335864,248.00944209817135L464.59226474424116,205.16006996024083L464.754815893653,261.28505318020416L465.0799181924768,208.87896362720002L465.1205559798297,219.4237863905549L465.28310712924156,247.80320867720235L465.6488472154182,188.8009996973675L465.6894850027711,212.49922524224755L466.0958628763007,222.93228970066292L466.13650066365364,288.0313865502565L466.1771384510066,236.26656145219505L466.50224074983026,256.9075194941348L467.31499649688953,187.6505589976657L468.2903033933605,237.93316376402115L468.45285454277234,218.7399027131185L468.53413011747824,204.4561403821342L468.5747679048312,213.3555040705258L468.6966812668901,201.4198483777656L469.06242135306667,279.99808380067276L469.10305914041965,261.2966654089013L469.4687992265963,237.18805448555455L469.5907125886552,160.64983591146537L469.9970904621848,247.64966317241453L470.2002793989496,241.1746310389371L471.66323974365605,259.36511025493417L472.0289798298328,268.84113894435944L472.1102554045387,261.43247536716945L472.2728065539505,263.0803550618715L472.51663327806824,222.56548386780042L472.6385466401271,243.242631543591L472.92301115159785,236.05199619668144L473.0449245136567,213.7943519182237L473.2481134504215,284.83054779404563L473.3700268124804,220.80336321257164L473.695129111304,243.11302405822144L473.8576802607159,215.3647823259023L474.0202314101277,230.19269894155434L474.42660928365734,230.1735329838776L474.4672470710103,215.9519726636226L474.9549005192458,250.1294718739603L475.1174516686576,216.20032901888726L475.40191618012835,229.5238019736943L475.56446732954015,234.92738090100005L476.0114829904227,225.85149142692106L476.4991364386582,263.2020607664082L477.1493410363056,264.61459757884427L478.16528572012953,225.36880239261902L478.7748525304239,261.4629048422127L479.0999548292476,217.94108351785422L479.3437815533654,211.03531357065157L479.50633270277723,257.1858952287304L479.6688838521891,205.67623898936066L479.99398615101273,240.3009422109356L480.2378128751305,242.21267409961234L480.2784506624834,234.336134691618L480.9692930474837,254.3715099501285L481.33503313366043,222.3370180575055L481.5788598577781,215.10975192088256L481.90396215660184,229.29031944637654L482.0258755186607,236.51408086355377L482.91990684042577,241.64078477014945L483.04182020248464,261.1135311371037L483.61074922542605,250.74533367614208L483.77330037483796,245.7546090946253L484.0984026736616,251.97894010947937L484.2203160357205,235.47178895209368L484.46414275983824,249.67997751071988L485.19562293219144,254.3764054044245L485.2768985068974,298.2294720512311L486.0083786792506,233.91645345468166L486.1709298286625,219.1373317266711L486.2928431907214,222.2743322249582L486.90241000101577,260.05890147814597L487.02432336307464,241.34877297183888L487.1868745124865,263.43843355535523L487.47133902395717,217.5970721485177L487.9996302595456,230.27078619902733L488.24345698366335,215.80873344195072L488.81238600660487,266.19812894612335L489.3000394548404,191.06027614271522L489.58450396631105,218.0804798687744L489.9096062651347,176.79360165658696L490.2347085639584,198.9294372497393L490.2753463513113,272.9758807387691L490.4785352880761,254.07831285147358L490.64108643748796,245.08078310948048L491.1693776730765,239.30170305808363L491.3319288224883,219.22986178741888L491.90085784542975,225.58252680155724L492.3885112936652,217.36768749058047L492.4291490810182,222.4508522219071L492.71361359248885,258.05085114719964L493.03871589131256,236.3287545871541L493.2825426154304,201.01635096742226L493.5263693395481,233.86051106166002L493.8108338510188,204.51741252676663L493.89210942572475,200.5323461834924L494.2578495119013,199.62671978775452L494.3391250866073,244.9650375879682L494.3797628739602,180.77110595274127L495.15188083366644,192.35264229117294L495.2737941957253,241.5398268040003L495.639534281902,205.46187382973864L496.1678255174904,234.82685229794444L496.61484117837296,239.26227933087733L496.73675454043183,235.10874033444074L497.14313241396144,220.5012501493662L497.79333701160874,239.28694762020754L498.2403526724914,243.87187828345037L498.9718328448446,218.61078718006937L499.3782107183742,234.9797389842871L499.41884850572717,228.2675870280666L499.62203744249194,247.24586887058385L499.66267522984487,236.0887643281196L499.9471397413156,269.4286772068673L500.10969089072745,222.8265878731132L500.15032867808037,245.10713733021217L500.19096646543335,267.5070509115504L500.8005332757278,210.92817027379004L501.0849977871985,237.36247186781708L501.12563557455144,236.97147806275726L501.2881867239633,237.27760012902522L501.3694622986692,257.22563121611034L501.7352023848458,257.17717977062665L501.8977535342576,238.69109570650429L502.0196668963165,221.98997864338898L503.0762493674935,204.5029771306513L503.11688715484644,193.76278492005534L503.48262724102307,249.538969356262L503.60454060308194,237.16440821033737L503.7670917524938,209.99854497902734L503.8890051145527,249.87414616735052L504.2953829880822,228.82995990732292L504.3360207754352,206.82102358068136L504.3766585627881,244.10093300152928L504.4172963501411,270.5102556609375L504.6204852869059,244.59802083327313L504.8643120110236,229.53696173414122L505.02686316043554,235.71771258695543L505.1081387351415,271.3647628534159L505.7583433327888,253.04899379336484L506.00217005690655,251.7910232323355L506.04280784425947,236.40666608241702L506.3679101430832,207.827518033303L506.6117368672009,261.5506240526985L507.14002810278936,249.48889272145203L507.42449261426015,243.79249495336546L507.8308704877897,187.2146530776446L508.56235066014295,250.93854704312471L508.8874529589666,195.90866963415888L509.8221220680847,228.77423809390308L510.1065865795554,220.18287552181525L510.3504133036732,267.33312242359176L510.47232666573206,207.47919167049724L511.73209807367374,231.72654525850254L511.77273586102666,252.62341304530943L512.4229404586741,235.87396931406866L512.463578246027,227.220672884715L512.8699561195566,219.53946043599743L512.9918694816155,302.5110161766975L513.0731450563214,271.4377014404611L513.5201607172039,261.96158650255984L513.7639874413217,215.7619477497157L513.8859008033805,253.60919790307065L514.0484519527924,259.0361795783175L514.6986565504399,207.7469989533846L514.7799321251457,226.13601073022286L514.8205699124986,235.4175700003826L514.9831210619105,241.6453255170866L515.1050344239694,205.76331931188358L515.1863099986753,190.350235511319L515.7552390216167,231.34643283580286L515.9177901710285,209.96946143650945L516.3648058319111,271.207003690252L516.48671919397,255.3152627896478L517.2994749410292,252.18640145820902L517.6245772398529,226.66609629728643L518.0309551133824,186.04711348323013L518.0715929007354,224.5945965588503L518.518608561618,282.70771597887733L519.453277670736,259.02777117604467L519.6564666075008,197.6355086388097L520.3473089925011,241.6437410214639L521.2819781016191,177.05121305099289L521.363253676325,248.9482063029937L522.1353716360313,208.22290989334152L522.1760094233842,243.88209471526304L522.338560572796,237.38415589712122L522.501111722208,231.57164531630528L523.2325918945612,235.67373247232717L523.476418618679,241.80291187651832L523.5170564060319,246.8515364017998L525.2238434748562,212.20819337684088L525.5489457736799,207.0977044344661L525.8740480725035,217.66383813527344L525.9146858598565,270.56034467511193L526.6055282448568,244.35637650655553L526.9306305436805,210.67136686983557L527.1338194804453,261.53288679821173L527.296370629857,245.5309892479015L527.7433862907396,269.1713302176492L528.2310397389751,229.69173807057973L528.352953101034,247.03038720537967L528.4342286757399,255.5910505560588L528.5967798251518,232.1638909701978L528.9218821239755,212.09137792767586L530.5067558307409,239.7397067371606L531.360149365153,260.34661044619946L531.6039760892708,224.55104323821578L531.6446138766237,211.3578310770284L531.7258894513296,217.08763786318278L532.335456261624,252.58052434865198L532.6199207730947,224.73943603107736L533.5545898822128,238.35747736401837L533.6358654569187,227.04413443627615L533.7171410316247,272.6426234416717L534.1641566925072,199.30492209099344L534.286070054566,257.627373806943L534.9769124395664,205.6713382653529L535.2207391636841,213.486179274568L535.7490303992727,248.14183694681356L536.5617861463318,236.14235309675755L536.9275262325084,259.6735749364804L537.4964552554497,223.92304289520166L537.5777308301557,239.70879220159966L537.6590064048617,252.26425575569158L538.0247464910383,202.5934940862958L538.3904865772149,250.060564540294L538.7155888760386,213.0273097172998L539.5283446230977,221.8056173418288L539.6096201978037,252.62596517893405L539.7315335598626,251.36107574887663L539.8128091345685,223.1993460752268L540.0566358586863,232.18323021301308L540.5442893069218,208.16850830190717L540.5849270942748,246.64003177080275L540.8693916057455,234.7365770333297L540.9913049678044,212.29662695691158L541.1132183298632,247.43312076225536" style="fill: none;" fill="none"></path></g></g></g></g></g></g><g transform="translate(40, 375)" clip-path="url(#clip_1)"><clipPath id="clip_1"><rect width="787" height="25"></rect></clipPath><g><g><line x1="38.342513199053286" y1="0" x2="38.342513199053286" y2="5" style="visibility: inherit;" fill="rgb(0, 0, 0)" stroke="rgb(204, 204, 204)" stroke-width="1px"></line><line x1="119.61808790497147" y1="0" x2="119.61808790497147" y2="5" style="visibility: inherit;" fill="rgb(0, 0, 0)" stroke="rgb(204, 204, 204)" stroke-width="1px"></line><line x1="200.89366261088963" y1="0" x2="200.89366261088963" y2="5" style="visibility: inherit;" fill="rgb(0, 0, 0)" stroke="rgb(204, 204, 204)" stroke-width="1px"></line><line x1="282.1692373168078" y1="0" x2="282.1692373168078" y2="5" style="visibility: inherit;" fill="rgb(0, 0, 0)" stroke="rgb(204, 204, 204)" stroke-width="1px"></line><line x1="363.444812022726" y1="0" x2="363.444812022726" y2="5" style="visibility: inherit;" fill="rgb(0, 0, 0)" stroke="rgb(204, 204, 204)" stroke-width="1px"></line><line x1="444.7203867286442" y1="0" x2="444.7203867286442" y2="5" style="visibility: inherit;" fill="rgb(0, 0, 0)" stroke="rgb(204, 204, 204)" stroke-width="1px"></line><line x1="525.9959614345623" y1="0" x2="525.9959614345623" y2="5" style="visibility: inherit;" fill="rgb(0, 0, 0)" stroke="rgb(204, 204, 204)" stroke-width="1px"></line><line x1="607.2715361404806" y1="0" x2="607.2715361404806" y2="5" style="visibility: inherit;" fill="rgb(0, 0, 0)" stroke="rgb(204, 204, 204)" stroke-width="1px"></line><line x1="688.5471108463987" y1="0" x2="688.5471108463987" y2="5" style="visibility: inherit;" fill="rgb(0, 0, 0)" stroke="rgb(204, 204, 204)" stroke-width="1px"></line><line x1="769.8226855523169" y1="0" x2="769.8226855523169" y2="5" style="visibility: inherit;" fill="rgb(0, 0, 0)" stroke="rgb(204, 204, 204)" stroke-width="1px"></line></g><g transform="translate(0, 8)"><text x="38.342513199053286" y="0" dx="0em" dy="0.95em" style="text-anchor: middle; visibility: inherit; font-family: &quot;Helvetica Neue&quot;, sans-serif; font-size: 12px; font-weight: 200;" fill="rgb(50, 49, 63)" stroke="none" stroke-width="1px">-4k</text><text x="119.61808790497147" y="0" dx="0em" dy="0.95em" style="text-anchor: middle; visibility: inherit; font-family: &quot;Helvetica Neue&quot;, sans-serif; font-size: 12px; font-weight: 200;" fill="rgb(50, 49, 63)" stroke="none" stroke-width="1px">-2k</text><text x="200.89366261088963" y="0" dx="0em" dy="0.95em" style="text-anchor: middle; visibility: inherit; font-family: &quot;Helvetica Neue&quot;, sans-serif; font-size: 12px; font-weight: 200;" fill="rgb(50, 49, 63)" stroke="none" stroke-width="1px">0</text><text x="282.1692373168078" y="0" dx="0em" dy="0.95em" style="text-anchor: middle; visibility: inherit; font-family: &quot;Helvetica Neue&quot;, sans-serif; font-size: 12px; font-weight: 200;" fill="rgb(50, 49, 63)" stroke="none" stroke-width="1px">2k</text><text x="363.444812022726" y="0" dx="0em" dy="0.95em" style="text-anchor: middle; visibility: inherit; font-family: &quot;Helvetica Neue&quot;, sans-serif; font-size: 12px; font-weight: 200;" fill="rgb(50, 49, 63)" stroke="none" stroke-width="1px">4k</text><text x="444.7203867286442" y="0" dx="0em" dy="0.95em" style="text-anchor: middle; visibility: inherit; font-family: &quot;Helvetica Neue&quot;, sans-serif; font-size: 12px; font-weight: 200;" fill="rgb(50, 49, 63)" stroke="none" stroke-width="1px">6k</text><text x="525.9959614345623" y="0" dx="0em" dy="0.95em" style="text-anchor: middle; visibility: inherit; font-family: &quot;Helvetica Neue&quot;, sans-serif; font-size: 12px; font-weight: 200;" fill="rgb(50, 49, 63)" stroke="none" stroke-width="1px">8k</text><text x="607.2715361404806" y="0" dx="0em" dy="0.95em" style="text-anchor: middle; visibility: inherit; font-family: &quot;Helvetica Neue&quot;, sans-serif; font-size: 12px; font-weight: 200;" fill="rgb(50, 49, 63)" stroke="none" stroke-width="1px">10k</text><text x="688.5471108463987" y="0" dx="0em" dy="0.95em" style="text-anchor: middle; visibility: inherit; font-family: &quot;Helvetica Neue&quot;, sans-serif; font-size: 12px; font-weight: 200;" fill="rgb(50, 49, 63)" stroke="none" stroke-width="1px">12k</text><text x="769.8226855523169" y="0" dx="0em" dy="0.95em" style="text-anchor: middle; visibility: inherit; font-family: &quot;Helvetica Neue&quot;, sans-serif; font-size: 12px; font-weight: 200;" fill="rgb(50, 49, 63)" stroke="none" stroke-width="1px">14k</text></g><line x1="0" y1="0" x2="787.25" y2="0" fill="rgb(0, 0, 0)" stroke="rgb(204, 204, 204)" stroke-width="1px"></line></g></g></g></g></svg>